<svg xmlns="http://www.w3.org/2000/svg" viewBox="0 0 496 496"><defs><style>.cls-1{fill:gray;}</style></defs><title>about-me-icon-gray</title><g id="Layer_2" data-name="Layer 2"><g id="Layer_1-2" data-name="Layer 1"><path class="cls-1" d="M248,0C111,0,0,111,0,248S111,496,248,496,496,385,496,248,385,0,248,0Zm0,448C137.7,448,48,358.3,48,248S137.7,48,248,48s200,89.7,200,200S358.3,448,248,448ZM168,168a32,32,0,1,0,32,32A32,32,0,0,0,168,168Zm160,0a32,32,0,1,0,32,32A32,32,0,0,0,328,168Z"/></g></g></svg>