<svg xmlns="http://www.w3.org/2000/svg" viewBox="0 0 208 208"><defs><style>.cls-1{fill:none;stroke:#f16529;stroke-miterlimit:10;stroke-width:3px;}</style></defs><title>bootstrap-outline-orange</title><g id="Layer_2" data-name="Layer 2"><g id="Layer_1-2" data-name="Layer 1"><path class="cls-1" d="M77.2,74.2a8.13,8.13,0,0,1-1.38-.28v-32c1.07-.08,2.07-.21,3.08-.21,10.26,0,20.52,0,30.78,0a29.93,29.93,0,0,1,5.83.56c8.69,1.77,12.47,7.2,11.26,18.13-.95,8.49-6.89,13.49-16,13.72C99.59,74.44,88.4,74.22,77.2,74.2Z"/><path class="cls-1" d="M132.14,105.68a33.29,33.29,0,0,1-.56,8c-1.64,7.3-7.23,12.33-15.5,12.63-13.31.47-26.65.12-40.21.12V89.79h4.51c10.83,0,21.66-.07,32.48.05a30.41,30.41,0,0,1,7.71,1.1A15.28,15.28,0,0,1,132.14,105.68Z"/><path class="cls-1" d="M38.68,158.79a47.29,47.29,0,0,0-4.86-.54v5c1.6-.08,3-.08,4.46-.26A1.89,1.89,0,0,0,40,161.1C40.12,160,39.77,159,38.68,158.79Zm0,8.57c-1.58-.27-3.21-.27-4.81-.38v5.65c1.46,0,2.85.08,4.22,0a2.6,2.6,0,0,0,2.49-2.5A2.28,2.28,0,0,0,38.67,167.36Zm21.13-1.57A2.74,2.74,0,0,0,57,163.3c-1.93-.08-2.84.5-3.32,2.26a24.17,24.17,0,0,0-.44,2.55l.12,0c0,.47,0,.93,0,1.39.15,2.2,1.34,3.59,3.18,3.73s3-.9,3.39-3.21A15.18,15.18,0,0,0,59.8,165.79Zm0,0A2.74,2.74,0,0,0,57,163.3c-1.93-.08-2.84.5-3.32,2.26a24.17,24.17,0,0,0-.44,2.55l.12,0c0,.47,0,.93,0,1.39.15,2.2,1.34,3.59,3.18,3.73s3-.9,3.39-3.21A15.18,15.18,0,0,0,59.8,165.79Zm-21.13,1.57c-1.58-.27-3.21-.27-4.81-.38v5.65c1.46,0,2.85.08,4.22,0a2.6,2.6,0,0,0,2.49-2.5A2.28,2.28,0,0,0,38.67,167.36Zm0-8.57a47.29,47.29,0,0,0-4.86-.54v5c1.6-.08,3-.08,4.46-.26A1.89,1.89,0,0,0,40,161.1C40.12,160,39.77,159,38.68,158.79Zm0,0a47.29,47.29,0,0,0-4.86-.54v5c1.6-.08,3-.08,4.46-.26A1.89,1.89,0,0,0,40,161.1C40.12,160,39.77,159,38.68,158.79Zm0,8.57c-1.58-.27-3.21-.27-4.81-.38v5.65c1.46,0,2.85.08,4.22,0a2.6,2.6,0,0,0,2.49-2.5A2.28,2.28,0,0,0,38.67,167.36Zm21.13-1.57A2.74,2.74,0,0,0,57,163.3c-1.93-.08-2.84.5-3.32,2.26a24.17,24.17,0,0,0-.44,2.55l.12,0c0,.47,0,.93,0,1.39.15,2.2,1.34,3.59,3.18,3.73s3-.9,3.39-3.21A15.18,15.18,0,0,0,59.8,165.79Zm19.24,0a2.73,2.73,0,0,0-2.84-2.49c-1.9-.08-2.81.5-3.32,2.28a21.62,21.62,0,0,0-.44,2.55l.12,0c0,.47,0,.93,0,1.39.14,2.18,1.33,3.56,3.19,3.71s3.06-.9,3.38-3.2A15.2,15.2,0,0,0,79,165.78Zm0,0a2.73,2.73,0,0,0-2.84-2.49c-1.9-.08-2.81.5-3.32,2.28a21.62,21.62,0,0,0-.44,2.55l.12,0c0,.47,0,.93,0,1.39.14,2.18,1.33,3.56,3.19,3.71s3.06-.9,3.38-3.2A15.2,15.2,0,0,0,79,165.78Zm-19.24,0A2.74,2.74,0,0,0,57,163.3c-1.93-.08-2.84.5-3.32,2.26a24.17,24.17,0,0,0-.44,2.55l.12,0c0,.47,0,.93,0,1.39.15,2.2,1.34,3.59,3.18,3.73s3-.9,3.39-3.21A15.18,15.18,0,0,0,59.8,165.79Zm-21.13,1.57c-1.58-.27-3.21-.27-4.81-.38v5.65c1.46,0,2.85.08,4.22,0a2.6,2.6,0,0,0,2.49-2.5A2.28,2.28,0,0,0,38.67,167.36Zm0-8.57a47.29,47.29,0,0,0-4.86-.54v5c1.6-.08,3-.08,4.46-.26A1.89,1.89,0,0,0,40,161.1C40.12,160,39.77,159,38.68,158.79Zm0,0a47.29,47.29,0,0,0-4.86-.54v5c1.6-.08,3-.08,4.46-.26A1.89,1.89,0,0,0,40,161.1C40.12,160,39.77,159,38.68,158.79Zm0,8.57c-1.58-.27-3.21-.27-4.81-.38v5.65c1.46,0,2.85.08,4.22,0a2.6,2.6,0,0,0,2.49-2.5A2.28,2.28,0,0,0,38.67,167.36Zm21.13-1.57A2.74,2.74,0,0,0,57,163.3c-1.93-.08-2.84.5-3.32,2.26a24.17,24.17,0,0,0-.44,2.55l.12,0c0,.47,0,.93,0,1.39.15,2.2,1.34,3.59,3.18,3.73s3-.9,3.39-3.21A15.18,15.18,0,0,0,59.8,165.79Zm19.24,0a2.73,2.73,0,0,0-2.84-2.49c-1.9-.08-2.81.5-3.32,2.28a21.62,21.62,0,0,0-.44,2.55l.12,0c0,.47,0,.93,0,1.39.14,2.18,1.33,3.56,3.19,3.71s3.06-.9,3.38-3.2A15.2,15.2,0,0,0,79,165.78Zm0,0a2.73,2.73,0,0,0-2.84-2.49c-1.9-.08-2.81.5-3.32,2.28a21.62,21.62,0,0,0-.44,2.55l.12,0c0,.47,0,.93,0,1.39.14,2.18,1.33,3.56,3.19,3.71s3.06-.9,3.38-3.2A15.2,15.2,0,0,0,79,165.78Zm-19.24,0A2.74,2.74,0,0,0,57,163.3c-1.93-.08-2.84.5-3.32,2.26a24.17,24.17,0,0,0-.44,2.55l.12,0c0,.47,0,.93,0,1.39.15,2.2,1.34,3.59,3.18,3.73s3-.9,3.39-3.21A15.18,15.18,0,0,0,59.8,165.79Zm-21.13,1.57c-1.58-.27-3.21-.27-4.81-.38v5.65c1.46,0,2.85.08,4.22,0a2.6,2.6,0,0,0,2.49-2.5A2.28,2.28,0,0,0,38.67,167.36Zm0-8.57a47.29,47.29,0,0,0-4.86-.54v5c1.6-.08,3-.08,4.46-.26A1.89,1.89,0,0,0,40,161.1C40.12,160,39.77,159,38.68,158.79Zm0,0a47.29,47.29,0,0,0-4.86-.54v5c1.6-.08,3-.08,4.46-.26A1.89,1.89,0,0,0,40,161.1C40.12,160,39.77,159,38.68,158.79Zm0,8.57c-1.58-.27-3.21-.27-4.81-.38v5.65c1.46,0,2.85.08,4.22,0a2.6,2.6,0,0,0,2.49-2.5A2.28,2.28,0,0,0,38.67,167.36Zm21.13-1.57A2.74,2.74,0,0,0,57,163.3c-1.93-.08-2.84.5-3.32,2.26a24.17,24.17,0,0,0-.44,2.55l.12,0c0,.47,0,.93,0,1.39.15,2.2,1.34,3.59,3.18,3.73s3-.9,3.39-3.21A15.18,15.18,0,0,0,59.8,165.79Zm19.24,0a2.73,2.73,0,0,0-2.84-2.49c-1.9-.08-2.81.5-3.32,2.28a21.62,21.62,0,0,0-.44,2.55l.12,0c0,.47,0,.93,0,1.39.14,2.18,1.33,3.56,3.19,3.71s3.06-.9,3.38-3.2A15.2,15.2,0,0,0,79,165.78Zm74.37,3a34,34,0,0,0-3.74.52,2.29,2.29,0,0,0-1.7,3,2.34,2.34,0,0,0,2.87,1.16C152.86,172.95,153.7,171.53,153.41,168.78Zm0,0a34,34,0,0,0-3.74.52,2.29,2.29,0,0,0-1.7,3,2.34,2.34,0,0,0,2.87,1.16C152.86,172.95,153.7,171.53,153.41,168.78Zm-74.37-3a2.73,2.73,0,0,0-2.84-2.49c-1.9-.08-2.81.5-3.32,2.28a21.62,21.62,0,0,0-.44,2.55l.12,0c0,.47,0,.93,0,1.39.14,2.18,1.33,3.56,3.19,3.71s3.06-.9,3.38-3.2A15.2,15.2,0,0,0,79,165.78Zm-19.24,0A2.74,2.74,0,0,0,57,163.3c-1.93-.08-2.84.5-3.32,2.26a24.17,24.17,0,0,0-.44,2.55l.12,0c0,.47,0,.93,0,1.39.15,2.2,1.34,3.59,3.18,3.73s3-.9,3.39-3.21A15.18,15.18,0,0,0,59.8,165.79Zm-21.13,1.57c-1.58-.27-3.21-.27-4.81-.38v5.65c1.46,0,2.85.08,4.22,0a2.6,2.6,0,0,0,2.49-2.5A2.28,2.28,0,0,0,38.67,167.36ZM40,161.1c.11-1.12-.24-2.08-1.33-2.31a47.29,47.29,0,0,0-4.86-.54v5c1.6-.08,3-.08,4.46-.26A1.89,1.89,0,0,0,40,161.1ZM196.5,1.5H11.5a10,10,0,0,0-10,10v185a10,10,0,0,0,10,10h185a10,10,0,0,0,10-10V11.5A10,10,0,0,0,196.5,1.5ZM41.76,175.93a7.45,7.45,0,0,1-2.67.7c-3.25.08-6.5,0-9.86,0V154.19c3.71.21,7.36.28,11,.64,2.36.24,4.28,1.47,4.67,4s-.12,4.87-3,6.14c2.84.87,3.82,2.82,3.73,5.42A5.82,5.82,0,0,1,41.76,175.93Zm14.91,1c-5.12,0-8.29-3.4-8.27-8.87s3.17-8.73,8.24-8.77,8.32,3.42,8.3,8.87C64.93,173.83,62,177,56.67,177Zm19.25,0c-5.14,0-8.29-3.37-8.28-8.86s3.23-8.81,8.38-8.78c5,0,8.14,3.45,8.16,8.86S81.18,177,75.92,177ZM98,173.87c0,2.74-.3,3.06-3.14,3.11h-.15c-4.89.37-6.36-2-6.29-6.21,0-2.42,0-4.83,0-7.34l-2.05-.2a2.06,2.06,0,0,1,1.2-2.88,4.89,4.89,0,0,0,1.63-1.87,13.48,13.48,0,0,0,.87-2.24h3.13v3.4c1.23,0,2.31.06,3.37,0s1.51.32,1.4,1.4a21.19,21.19,0,0,0,0,2.27H93.25c0,2.92,0,5.69,0,8.47,0,1.05.81,1.52,1.8,1.47s1.9-.2,2.94-.32Zm15.18-1.58c-.28,2.52-2,4.29-5,4.57a37.82,37.82,0,0,1-6.45-.35c-1.18-.09-1.67-.77-1.5-2a18.74,18.74,0,0,0,0-2.26l4.57,1.11a3.78,3.78,0,0,0,.45.11c1.25.11,2.77.3,3.18-1.14s-1.09-1.66-2-2.14c-1.18-.62-2.46-1.07-3.62-1.72a4.56,4.56,0,0,1-2.54-4.88,4.67,4.67,0,0,1,3.87-3.92,13.35,13.35,0,0,1,8.87,1l-1.3,3.16c-1.76-.32-3.39-.71-5-.87-.51-.05-1.08.53-1.62.82.35.47.6,1.1,1.06,1.36,1.06.61,2.23,1,3.36,1.54C112.31,168,113.48,169.76,113.19,172.29Zm13.33-9h-4.77c0,2.94,0,5.62,0,8.29a1.57,1.57,0,0,0,1.8,1.67c1,0,1.92-.2,3-.32v1.23c0,2.36-.26,2.66-2.65,2.82-5.25.37-6.93-1.21-6.93-6.48v-7l-2.06-.19c-.42-1.32-.21-2.3,1.2-2.84,1.89-.72,1.67-2.78,2.6-4.17h3v3.4c1.16,0,2.19.07,3.2,0,1.18-.1,1.76.23,1.58,1.52A16.56,16.56,0,0,0,126.52,163.28ZM112,144.1c-18.22.19-36.43,0-54.64.12-2.46,0-3.16-.63-3.16-3.11q.12-56.88,0-113.76c0-2.53.68-3.35,3.29-3.35,18.41.11,36.81-.18,55.19.2a60,60,0,0,1,17.78,3.08c14.2,4.87,19,16.44,17.74,30.35-.88,9.49-5.93,16.28-14.17,20.82-.55.3-1.07.64-2,1.19,17,4.76,22.2,18.18,21.68,32.07-.62,16.36-9.7,26.65-27,30.64A69.77,69.77,0,0,1,112,144.1Zm28.9,19.69c-5.6.52-6,1-6,6.45v6.31h-4.71V159.7c3.39-.15,3.39-.15,4.25,2.7,1.74-2,3.64-3.59,6.72-2.82C141.1,161,141,162.42,140.93,163.79Zm17.27,12.79h-3.34l-.93-2.12a6.72,6.72,0,0,1-6.2,2.54,4.78,4.78,0,0,1-4.64-4c-.56-2.6.38-5,2.59-5.84a25.62,25.62,0,0,1,4.95-1,19.3,19.3,0,0,1,2.85,0c0-2.55-.84-3.46-3-3.19-1.41.17-2.79.6-4.36,1l-1.55-3c3.43-1.66,6.89-2.21,10.48-.88a4.77,4.77,0,0,1,3.15,4.57C158.29,168.54,158.2,172.51,158.2,176.58ZM177.81,173c-1.77,4.36-6.41,5.42-10,2.39-.15-.12-.3-.24-.43-.33v9h-4.56V159.62c1.83.28,4.16-1,4.39,2.28,1.67-1.88,3.5-2.84,5.86-2.48a5.69,5.69,0,0,1,4.7,3.77A12.76,12.76,0,0,1,177.81,173Zm-7.32-9.71c-1.51.06-2.55.78-2.68,2.25a28,28,0,0,0,.06,5.49,2.86,2.86,0,0,0,5.52.16,27.52,27.52,0,0,0,.49-2.86c-.14-1-.21-2-.43-2.92A2.6,2.6,0,0,0,170.49,163.28Zm-20.82,6a2.29,2.29,0,0,0-1.7,3,2.34,2.34,0,0,0,2.87,1.16c2-.51,2.86-1.93,2.57-4.68A34,34,0,0,0,149.67,169.3Zm-73.47-6c-1.9-.08-2.81.5-3.32,2.28a21.62,21.62,0,0,0-.44,2.55l.12,0c0,.47,0,.93,0,1.39.14,2.18,1.33,3.56,3.19,3.71s3.06-.9,3.38-3.2a15.2,15.2,0,0,0-.1-4.26A2.73,2.73,0,0,0,76.2,163.29ZM57,163.3c-1.93-.08-2.84.5-3.32,2.26a24.17,24.17,0,0,0-.44,2.55l.12,0c0,.47,0,.93,0,1.39.15,2.2,1.34,3.59,3.18,3.73s3-.9,3.39-3.21a15.18,15.18,0,0,0-.1-4.25A2.74,2.74,0,0,0,57,163.3Zm-18.3,4.06c-1.58-.27-3.21-.27-4.81-.38v5.65c1.46,0,2.85.08,4.22,0a2.6,2.6,0,0,0,2.49-2.5A2.28,2.28,0,0,0,38.67,167.36ZM40,161.1c.11-1.12-.24-2.08-1.33-2.31a47.29,47.29,0,0,0-4.86-.54v5c1.6-.08,3-.08,4.46-.26A1.89,1.89,0,0,0,40,161.1Zm-1.33-2.31a47.29,47.29,0,0,0-4.86-.54v5c1.6-.08,3-.08,4.46-.26A1.89,1.89,0,0,0,40,161.1C40.12,160,39.77,159,38.68,158.79Zm0,8.57c-1.58-.27-3.21-.27-4.81-.38v5.65c1.46,0,2.85.08,4.22,0a2.6,2.6,0,0,0,2.49-2.5A2.28,2.28,0,0,0,38.67,167.36Zm21.13-1.57A2.74,2.74,0,0,0,57,163.3c-1.93-.08-2.84.5-3.32,2.26a24.17,24.17,0,0,0-.44,2.55l.12,0c0,.47,0,.93,0,1.39.15,2.2,1.34,3.59,3.18,3.73s3-.9,3.39-3.21A15.18,15.18,0,0,0,59.8,165.79Zm19.24,0a2.73,2.73,0,0,0-2.84-2.49c-1.9-.08-2.81.5-3.32,2.28a21.62,21.62,0,0,0-.44,2.55l.12,0c0,.47,0,.93,0,1.39.14,2.18,1.33,3.56,3.19,3.71s3.06-.9,3.38-3.2A15.2,15.2,0,0,0,79,165.78Zm0,0a2.73,2.73,0,0,0-2.84-2.49c-1.9-.08-2.81.5-3.32,2.28a21.62,21.62,0,0,0-.44,2.55l.12,0c0,.47,0,.93,0,1.39.14,2.18,1.33,3.56,3.19,3.71s3.06-.9,3.38-3.2A15.2,15.2,0,0,0,79,165.78Zm-19.24,0A2.74,2.74,0,0,0,57,163.3c-1.93-.08-2.84.5-3.32,2.26a24.17,24.17,0,0,0-.44,2.55l.12,0c0,.47,0,.93,0,1.39.15,2.2,1.34,3.59,3.18,3.73s3-.9,3.39-3.21A15.18,15.18,0,0,0,59.8,165.79Zm-21.13,1.57c-1.58-.27-3.21-.27-4.81-.38v5.65c1.46,0,2.85.08,4.22,0a2.6,2.6,0,0,0,2.49-2.5A2.28,2.28,0,0,0,38.67,167.36Zm0-8.57a47.29,47.29,0,0,0-4.86-.54v5c1.6-.08,3-.08,4.46-.26A1.89,1.89,0,0,0,40,161.1C40.12,160,39.77,159,38.68,158.79Zm0,0a47.29,47.29,0,0,0-4.86-.54v5c1.6-.08,3-.08,4.46-.26A1.89,1.89,0,0,0,40,161.1C40.12,160,39.77,159,38.68,158.79Zm0,8.57c-1.58-.27-3.21-.27-4.81-.38v5.65c1.46,0,2.85.08,4.22,0a2.6,2.6,0,0,0,2.49-2.5A2.28,2.28,0,0,0,38.67,167.36Zm21.13-1.57A2.74,2.74,0,0,0,57,163.3c-1.93-.08-2.84.5-3.32,2.26a24.17,24.17,0,0,0-.44,2.55l.12,0c0,.47,0,.93,0,1.39.15,2.2,1.34,3.59,3.18,3.73s3-.9,3.39-3.21A15.18,15.18,0,0,0,59.8,165.79Zm19.24,0a2.73,2.73,0,0,0-2.84-2.49c-1.9-.08-2.81.5-3.32,2.28a21.62,21.62,0,0,0-.44,2.55l.12,0c0,.47,0,.93,0,1.39.14,2.18,1.33,3.56,3.19,3.71s3.06-.9,3.38-3.2A15.2,15.2,0,0,0,79,165.78Zm0,0a2.73,2.73,0,0,0-2.84-2.49c-1.9-.08-2.81.5-3.32,2.28a21.62,21.62,0,0,0-.44,2.55l.12,0c0,.47,0,.93,0,1.39.14,2.18,1.33,3.56,3.19,3.71s3.06-.9,3.38-3.2A15.2,15.2,0,0,0,79,165.78Zm-19.24,0A2.74,2.74,0,0,0,57,163.3c-1.93-.08-2.84.5-3.32,2.26a24.17,24.17,0,0,0-.44,2.55l.12,0c0,.47,0,.93,0,1.39.15,2.2,1.34,3.59,3.18,3.73s3-.9,3.39-3.21A15.18,15.18,0,0,0,59.8,165.79Zm-21.13,1.57c-1.58-.27-3.21-.27-4.81-.38v5.65c1.46,0,2.85.08,4.22,0a2.6,2.6,0,0,0,2.49-2.5A2.28,2.28,0,0,0,38.67,167.36Zm0-8.57a47.29,47.29,0,0,0-4.86-.54v5c1.6-.08,3-.08,4.46-.26A1.89,1.89,0,0,0,40,161.1C40.12,160,39.77,159,38.68,158.79Zm0,0a47.29,47.29,0,0,0-4.86-.54v5c1.6-.08,3-.08,4.46-.26A1.89,1.89,0,0,0,40,161.1C40.12,160,39.77,159,38.68,158.79Zm0,8.57c-1.58-.27-3.21-.27-4.81-.38v5.65c1.46,0,2.85.08,4.22,0a2.6,2.6,0,0,0,2.49-2.5A2.28,2.28,0,0,0,38.67,167.36Zm21.13-1.57A2.74,2.74,0,0,0,57,163.3c-1.93-.08-2.84.5-3.32,2.26a24.17,24.17,0,0,0-.44,2.55l.12,0c0,.47,0,.93,0,1.39.15,2.2,1.34,3.59,3.18,3.73s3-.9,3.39-3.21A15.18,15.18,0,0,0,59.8,165.79Zm19.24,0a2.73,2.73,0,0,0-2.84-2.49c-1.9-.08-2.81.5-3.32,2.28a21.62,21.62,0,0,0-.44,2.55l.12,0c0,.47,0,.93,0,1.39.14,2.18,1.33,3.56,3.19,3.71s3.06-.9,3.38-3.2A15.2,15.2,0,0,0,79,165.78Zm0,0a2.73,2.73,0,0,0-2.84-2.49c-1.9-.08-2.81.5-3.32,2.28a21.62,21.62,0,0,0-.44,2.55l.12,0c0,.47,0,.93,0,1.39.14,2.18,1.33,3.56,3.19,3.71s3.06-.9,3.38-3.2A15.2,15.2,0,0,0,79,165.78Zm-19.24,0A2.74,2.74,0,0,0,57,163.3c-1.93-.08-2.84.5-3.32,2.26a24.17,24.17,0,0,0-.44,2.55l.12,0c0,.47,0,.93,0,1.39.15,2.2,1.34,3.59,3.18,3.73s3-.9,3.39-3.21A15.18,15.18,0,0,0,59.8,165.79Zm-21.13,1.57c-1.58-.27-3.21-.27-4.81-.38v5.65c1.46,0,2.85.08,4.22,0a2.6,2.6,0,0,0,2.49-2.5A2.28,2.28,0,0,0,38.67,167.36Zm0-8.57a47.29,47.29,0,0,0-4.86-.54v5c1.6-.08,3-.08,4.46-.26A1.89,1.89,0,0,0,40,161.1C40.12,160,39.77,159,38.68,158.79Zm0,0a47.29,47.29,0,0,0-4.86-.54v5c1.6-.08,3-.08,4.46-.26A1.89,1.89,0,0,0,40,161.1C40.12,160,39.77,159,38.68,158.79Zm0,8.57c-1.58-.27-3.21-.27-4.81-.38v5.65c1.46,0,2.85.08,4.22,0a2.6,2.6,0,0,0,2.49-2.5A2.28,2.28,0,0,0,38.67,167.36Zm0,0c-1.58-.27-3.21-.27-4.81-.38v5.65c1.46,0,2.85.08,4.22,0a2.6,2.6,0,0,0,2.49-2.5A2.28,2.28,0,0,0,38.67,167.36Zm0-8.57a47.29,47.29,0,0,0-4.86-.54v5c1.6-.08,3-.08,4.46-.26A1.89,1.89,0,0,0,40,161.1C40.12,160,39.77,159,38.68,158.79Z"/></g></g></svg>