<svg xmlns="http://www.w3.org/2000/svg" viewBox="0 0 205 205"><defs><style>.cls-1{fill:#999;}</style></defs><title>bootstrap-gray</title><g id="Layer_2" data-name="Layer 2"><g id="Layer_1-2" data-name="Layer 1"><path class="cls-1" d="M75.62,92.56a8.36,8.36,0,0,1-1.39-.28V60.2c1.08-.08,2.08-.21,3.09-.21,10.29,0,20.59,0,30.88,0a30.25,30.25,0,0,1,5.85.56c8.71,1.78,12.5,7.22,11.29,18.19-1,8.51-6.91,13.53-16,13.76C98.08,92.8,86.85,92.58,75.62,92.56Z"/><path class="cls-1" d="M130.73,124.14a33,33,0,0,1-.57,8.07c-1.64,7.32-7.25,12.37-15.54,12.67-13.35.47-26.73.12-40.34.12V108.2h4.53c10.86,0,21.72-.07,32.58,0a30.56,30.56,0,0,1,7.73,1.1A15.34,15.34,0,0,1,130.73,124.14Z"/><path class="cls-1" d="M195,0H10A10,10,0,0,0,0,10V195a10,10,0,0,0,10,10H195a10,10,0,0,0,10-10V10A10,10,0,0,0,195,0ZM152.38,130.19c-.62,16.41-9.73,26.73-27.11,30.73a70.16,70.16,0,0,1-14.72,1.75c-18.27.2-36.54,0-54.8.13-2.47,0-3.17-.64-3.17-3.12q.12-57.06,0-114.11c0-2.54.68-3.37,3.3-3.36,18.46.11,36.92-.19,55.36.2a60,60,0,0,1,17.83,3.09c14.25,4.88,19.1,16.49,17.8,30.44-.89,9.52-5.95,16.33-14.22,20.88-.55.3-1.07.64-2,1.2C147.69,102.79,152.9,116.25,152.38,130.19Z"/></g></g></svg>