<svg xmlns="http://www.w3.org/2000/svg" viewBox="0 0 205 205"><defs><style>.cls-1{fill:#563d7c;}.cls-2{fill:#f2f2f2;}</style></defs><title>bootstrap-color_3</title><g id="Layer_2" data-name="Layer 2"><g id="Layer_1-2" data-name="Layer 1"><rect class="cls-1" width="205" height="205" rx="10" ry="10"/><path class="cls-2" d="M27.73,158.7c3.71.2,7.36.28,11,.64,2.36.24,4.28,1.47,4.67,4s-.12,4.87-3.05,6.14c2.84.87,3.82,2.82,3.73,5.42a5.84,5.84,0,0,1-3.8,5.51,7.49,7.49,0,0,1-2.67.7c-3.25.08-6.5,0-9.86,0Zm4.63,18.44c1.46,0,2.85.08,4.22,0a2.58,2.58,0,0,0,2.49-2.5,2.28,2.28,0,0,0-1.9-2.75c-1.58-.27-3.2-.27-4.81-.39Zm0-9.4c1.6-.08,3-.08,4.46-.25a1.89,1.89,0,0,0,1.73-1.87c.11-1.12-.24-2.09-1.33-2.32a46.87,46.87,0,0,0-4.86-.54Z"/><path class="cls-2" d="M161.32,164.12c1.83.28,4.17-1,4.39,2.28,1.67-1.88,3.51-2.84,5.86-2.48a5.71,5.71,0,0,1,4.7,3.77,12.81,12.81,0,0,1,0,9.8c-1.77,4.36-6.41,5.41-10,2.39l-.43-.33v8.95h-4.57Zm11.07,8.71c-.14-1-.21-2-.43-2.93a2.59,2.59,0,0,0-3-2.11c-1.51.06-2.55.78-2.68,2.25a28,28,0,0,0,.06,5.49,2.86,2.86,0,0,0,5.52.16C172.15,174.75,172.23,173.77,172.39,172.83Z"/><path class="cls-2" d="M152,170.62c0-2.54-.84-3.46-3-3.19-1.41.17-2.79.6-4.36,1l-1.56-3c3.43-1.66,6.89-2.21,10.48-.87a4.75,4.75,0,0,1,3.15,4.57c.13,4,0,7.94,0,12h-3.34l-.93-2.12a6.74,6.74,0,0,1-6.2,2.54,4.77,4.77,0,0,1-4.64-4c-.57-2.6.38-5,2.59-5.84a24.92,24.92,0,0,1,4.95-1A19.54,19.54,0,0,1,152,170.62Zm-.07,2.66a34,34,0,0,0-3.73.52,2.29,2.29,0,0,0-1.7,3,2.34,2.34,0,0,0,2.86,1.16C151.36,177.46,152.21,176,151.91,173.28Z"/><path class="cls-2" d="M55.17,181.48c-5.12,0-8.29-3.4-8.27-8.87s3.16-8.73,8.24-8.77,8.32,3.42,8.3,8.88C63.43,178.33,60.45,181.48,55.17,181.48Zm-3.46-8.87.11,0c0,.46,0,.93,0,1.39.15,2.19,1.34,3.59,3.18,3.73s3-.9,3.39-3.21a15.2,15.2,0,0,0-.09-4.25,2.75,2.75,0,0,0-2.84-2.49c-1.92-.08-2.83.5-3.32,2.26A23.84,23.84,0,0,0,51.72,172.62Z"/><path class="cls-2" d="M74.42,181.48c-5.14,0-8.28-3.37-8.28-8.86s3.23-8.81,8.38-8.78c5,0,8.14,3.45,8.17,8.86C82.71,178.27,79.69,181.48,74.42,181.48Zm-3.48-8.86.12,0c0,.46,0,.93,0,1.39.14,2.18,1.33,3.56,3.19,3.71s3.06-.9,3.39-3.21a15.37,15.37,0,0,0-.1-4.25,2.73,2.73,0,0,0-2.85-2.49c-1.9-.08-2.81.5-3.32,2.28A22.51,22.51,0,0,0,70.95,172.62Z"/><path class="cls-2" d="M98.73,176.77l4.57,1.11a3.11,3.11,0,0,0,.45.11c1.25.11,2.76.3,3.18-1.14s-1.09-1.66-2-2.14c-1.18-.62-2.46-1.07-3.62-1.72a4.57,4.57,0,0,1-2.54-4.88,4.68,4.68,0,0,1,3.87-3.93,13.35,13.35,0,0,1,8.87,1.06l-1.3,3.15c-1.76-.32-3.39-.71-5-.87-.51,0-1.08.53-1.62.82.35.47.6,1.1,1.06,1.36,1.07.61,2.23,1,3.36,1.53,2.87,1.29,4,3,3.75,5.54s-2,4.3-5,4.57a38.1,38.1,0,0,1-6.45-.35c-1.18-.1-1.67-.77-1.5-2A17.51,17.51,0,0,0,98.73,176.77Z"/><path class="cls-2" d="M120.26,167.78c0,2.94,0,5.61,0,8.29a1.57,1.57,0,0,0,1.8,1.67c1,0,1.92-.2,3-.32,0,.42,0,.82,0,1.23,0,2.37-.26,2.66-2.64,2.83-5.25.36-6.94-1.21-6.94-6.48,0-2.32,0-4.63,0-7.05l-2.05-.19c-.42-1.32-.21-2.3,1.2-2.84,1.89-.72,1.67-2.79,2.6-4.17h3v3.41c1.16,0,2.18.07,3.19,0,1.18-.1,1.76.24,1.59,1.53a17,17,0,0,0,0,2.13Z"/><path class="cls-2" d="M96.51,177.42c0,.35,0,.65,0,1,0,2.74-.3,3.06-3.14,3.11h-.15c-4.89.37-6.35-2-6.29-6.21,0-2.42,0-4.83,0-7.34l-2-.2a2.07,2.07,0,0,1,1.19-2.89A4.86,4.86,0,0,0,87.72,163a13.2,13.2,0,0,0,.86-2.24h3.14v3.4c1.23,0,2.31.06,3.37,0s1.5.31,1.39,1.4c-.07.7,0,1.42,0,2.27H91.75c0,2.92,0,5.69,0,8.47,0,1.05.81,1.52,1.8,1.48S95.47,177.54,96.51,177.42Z"/><path class="cls-2" d="M128.73,164.2c3.39-.15,3.39-.15,4.25,2.7,1.74-2,3.64-3.59,6.71-2.82l-.26,4.21c-5.6.52-6,1-6,6.45v6.32h-4.71Z"/><path class="cls-2" d="M130.56,78.15c.95-.56,1.47-.9,2-1.2,8.24-4.54,13.29-11.33,14.18-20.82C148,42.23,143.21,30.65,129,25.79a59.8,59.8,0,0,0-17.78-3.08c-18.38-.39-36.79-.09-55.19-.2-2.61,0-3.3.82-3.29,3.35q.1,56.88,0,113.76c0,2.47.7,3.13,3.16,3.11,18.2-.1,36.42.07,54.63-.13a69.94,69.94,0,0,0,14.67-1.74c17.33-4,26.41-14.28,27-30.64C152.75,96.32,147.55,82.9,130.56,78.15ZM74.32,40.44c1.08-.08,2.07-.21,3.08-.21,10.26,0,20.53,0,30.79,0a30.16,30.16,0,0,1,5.83.56c8.68,1.77,12.46,7.2,11.26,18.13-.95,8.48-6.89,13.49-16,13.72-11.2.28-22.39.06-33.59,0a8.33,8.33,0,0,1-1.39-.28Zm55.76,71.79c-1.64,7.3-7.23,12.33-15.49,12.63-13.31.47-26.65.12-40.22.12V88.3h4.52c10.83,0,21.65-.07,32.48,0a30.47,30.47,0,0,1,7.71,1.1,15.29,15.29,0,0,1,11.57,14.74A32.91,32.91,0,0,1,130.08,112.23Z"/></g></g></svg>