<svg xmlns="http://www.w3.org/2000/svg" viewBox="0 0 205 205"><defs><style>.cls-1{fill:#264de4;}.cls-2{fill:#2965f1;}.cls-3{fill:#fff;}</style></defs><title>css3-color</title><g id="Layer_2" data-name="Layer 2"><g id="Layer_1-2" data-name="Layer 1"><rect class="cls-1" width="205" height="205" rx="10" ry="10"/><path class="cls-2" d="M195,0H103V205h92a10,10,0,0,0,10-10V10A10,10,0,0,0,195,0Z"/><path id="path2999" d="M69.11,22.5H88.75v8.21H77.32v8.21H88.75v8.21H69.11Z"/><path id="path3001" d="M92.68,22.5h19.64v7.14H100.89v1.43h11.43V47.5H92.68V40h11.43V38.57H92.68Z"/><path id="path3003" d="M116.25,22.5h19.64v7.14H124.46v1.43h11.43V47.5H116.25V40h11.43V38.57H116.25Z"/><polygon class="cls-3" points="102.34 57.5 102.27 57.5 47.49 57.5 49.48 79.38 102.34 79.38 133.78 79.38 131.75 102.23 102.34 102.23 51.42 102.23 53.39 124.1 102.34 124.1 129.46 124.1 126.91 152.67 102.34 159.3 102.34 159.5 102.25 159.53 77.66 152.89 76.09 135.28 64.14 135.28 53.93 135.28 57.02 169.95 102.24 182.5 102.34 182.47 102.34 182.21 147.49 169.7 147.82 165.97 153 107.99 153.54 102.08 157.51 57.5 102.34 57.5"/></g></g></svg>