<svg xmlns="http://www.w3.org/2000/svg" viewBox="0 0 208 208"><defs><style>.cls-1{fill:none;stroke:#f16529;stroke-miterlimit:10;stroke-width:3px;}</style></defs><title>css3-outline-orange</title><g id="Layer_2" data-name="Layer 2"><g id="Layer_1-2" data-name="Layer 1"><path class="cls-1" d="M196.5,1.5H11.5a10,10,0,0,0-10,10v185a10,10,0,0,0,10,10h185a10,10,0,0,0,10-10V11.5A10,10,0,0,0,196.5,1.5Zm-78.75,40h11.42V40.07H117.75V24h19.64v7.14H126v1.43h11.43V49H117.75Zm-23.58,0H105.6V40.07H94.17V24h19.65v7.14H102.39v1.43h11.43V49H94.17ZM70.6,24H90.25v8.21H78.82v8.21H90.25v8.22H70.6ZM155,103.57l-.53,5.92-5.18,58-.33,3.72-45.15,12.52V184l-.1,0L58.51,171.44l-3.09-34.66H77.58l1.57,17.61L103.74,161l.1,0v-.21l24.56-6.63L131,125.6H54.88l-2-21.88h80.33l2-22.85H51L49,59H159Z"/></g></g></svg>