<svg xmlns="http://www.w3.org/2000/svg" viewBox="0 0 205 205"><defs><style>.cls-1{fill:#999;}</style></defs><title>css3-gray</title><g id="Layer_2" data-name="Layer 2"><g id="Layer_1-2" data-name="Layer 1"><path class="cls-1" d="M195,0H10A10,10,0,0,0,0,10V195a10,10,0,0,0,10,10H195a10,10,0,0,0,10-10V10A10,10,0,0,0,195,0ZM116.25,40h11.42V38.57H116.25V22.5h19.64v7.14H124.46v1.43h11.43V47.5H116.25ZM92.67,40H104.1V38.57H92.67V22.5h19.65v7.14H100.89v1.43h11.43V47.5H92.67ZM69.1,22.5H88.75v8.21H77.32v8.21H88.75v8.22H69.1Zm84.43,79.57L153,108l-5.18,58-.33,3.72-45.15,12.52v.26l-.1,0L57,169.94l-3.09-34.66H76.08l1.57,17.61,24.59,6.63.1,0v-.21l24.56-6.63,2.56-28.56H53.38l-2-21.88h80.33l2-22.85H49.47l-2-21.87h110Z"/></g></g></svg>