<svg xmlns="http://www.w3.org/2000/svg" viewBox="0 0 150.01 155"><defs><style>.cls-1{fill:none;stroke:#f16529;stroke-miterlimit:10;stroke-width:5px;}</style></defs><title>gh-outline-orange</title><g id="Layer_2" data-name="Layer 2"><g id="Layer_1-2" data-name="Layer 1"><path class="cls-1" d="M146.23,73.43a44,44,0,0,1-9.26,21c-6.64,8-15.49,12.19-25.35,14.53-3.91.92-7.88,1.53-12,2.32,5.31,5.61,6.77,12.42,6.73,19.74q0,10.73,0,21.46H53.85V140c-6.19,1.29-11.93,1.79-17.66.77-8.45-1.5-14.92-5.7-18.32-13.95-2.56-6.2-6.08-11.66-12-15.22a8.45,8.45,0,0,1-2.27-1.95c-.54-.68-1.26-1.85-1-2.37a3.09,3.09,0,0,1,2.36-1.44,24.32,24.32,0,0,1,7.07.84c5.37,1.81,9,5.77,11.92,10.52a22,22,0,0,0,8.57,8.44c7,3.65,14,2.69,20.87-.16.47-.2.81-1.08.93-1.7a24.79,24.79,0,0,1,4.43-10.44c.54-.71,1.16-1.37,1.55-1.82-5.4-1.22-10.86-2.12-16.12-3.71-11.37-3.45-20.42-10-25.84-20.87-3.54-7.12-4.86-14.75-5.48-22.6-1-12.27,1.84-23.32,9.89-32.85a2.43,2.43,0,0,0,.42-1.95c-2.83-8.76-2-17.36,1.13-25.84a2.14,2.14,0,0,1,1.61-1.15,39.43,39.43,0,0,1,7.32.84c7,1.75,13.15,5.26,19.09,9.2a3.49,3.49,0,0,0,2.92.54c4.23-.93,8.46-1.91,12.75-2.45a101.07,101.07,0,0,1,37.27,2.38,3.92,3.92,0,0,0,2.54-.46c4-2.17,7.92-4.62,12-6.62,4.44-2.18,9.14-3.73,14.21-3.47a2.46,2.46,0,0,1,1.87,1.09c3.12,8.35,3.93,16.86,1.26,25.49a2.59,2.59,0,0,0,.58,2.83,38.81,38.81,0,0,1,8.68,17.28C148.15,57.3,147.63,65.39,146.23,73.43Z"/></g></g></svg>