<svg xmlns="http://www.w3.org/2000/svg" viewBox="0 0 205 205"><defs><style>.cls-1{fill:#999;}</style></defs><title>git-gray</title><g id="Layer_2" data-name="Layer 2"><g id="Layer_1-2" data-name="Layer 1"><path class="cls-1" d="M205,10V195a10,10,0,0,1-10,10H10A10,10,0,0,1,0,195V10A10,10,0,0,1,10,0H35.88c14,14,29.37,29.44,34.35,34.54.66.67.68,2.38.42,3.47-2.13,8.85,1.2,17.38,9,21.89A4,4,0,0,1,82,64q-.11,31.92,0,63.85a4.34,4.34,0,0,1-2.47,4.41,19,19,0,0,0-8.85,21.58A19.22,19.22,0,0,0,88.22,168c9.25.25,16.76-4.9,19.48-13.35a19,19,0,0,0-7.62-21.77,4.43,4.43,0,0,1-2.31-4.22c.07-21.07,0-42.13,0-63.2,0-.79.16-1.58.31-2.94,8.13,8.14,15.8,15.9,23.59,23.52,1.74,1.7,2.32,3.11,1.65,5.64-3.18,12.09,7,24.5,19.3,23.74a19.49,19.49,0,0,0,18.54-22c-1.38-10.94-11.83-18.31-23.16-16.14A4.16,4.16,0,0,1,133.73,76q-12.07-12.25-24.32-24.34a4.05,4.05,0,0,1-1.31-4.28A19.12,19.12,0,0,0,85.42,24.44,4.35,4.35,0,0,1,80.88,23C73.27,15.27,65.61,7.65,58,0H195A10,10,0,0,1,205,10Z"/></g></g></svg>