<svg xmlns="http://www.w3.org/2000/svg" viewBox="0 0 208 208"><defs><style>.cls-1{fill:none;stroke:#999;stroke-miterlimit:10;stroke-width:3px;}</style></defs><title>git-outline-gray</title><g id="Layer_2" data-name="Layer 2"><g id="Layer_1-2" data-name="Layer 1"><path class="cls-1" d="M132.91,150.15c0,3.36-2.26,5.52-5.91,5.59s-6-1.88-6-5.35c0-3.67,2.21-5.8,6.14-5.82C130.79,144.55,132.88,146.56,132.91,150.15Z"/><path class="cls-1" d="M120,174c.11-.21.75-.22,1.14-.2,3.51.21,7,.4,10.53.72,1.35.12,2.93.22,3.22,2,.23,1.38-.89,2.76-2.8,3.2s-3.77.58-5.75.86c-1.84-.29-3.74-.5-5.6-.91-1.15-.25-2.31-1-2.18-2.28A10.48,10.48,0,0,1,120,174Z"/><path class="cls-1" d="M196.5,1.5h-183l4.9,4.91c8.34,8.35,16.71,16.66,25,25.06a4.36,4.36,0,0,0,4.55,1.47A19.13,19.13,0,0,1,70.61,55.85a4,4,0,0,0,1.3,4.28Q84.14,72.24,96.24,84.47a4.16,4.16,0,0,0,4.32,1.27c11.32-2.17,21.78,5.2,23.16,16.14a19.5,19.5,0,0,1-18.55,22c-12.28.76-22.48-11.65-19.29-23.74.67-2.53.08-3.94-1.66-5.64C76.43,86.91,68.77,79.15,60.63,71c-.14,1.36-.3,2.15-.3,2.94,0,21.07,0,42.13-.06,63.2a4.43,4.43,0,0,0,2.31,4.22,19,19,0,0,1,7.62,21.77c-2.72,8.45-10.22,13.6-19.47,13.35a19.22,19.22,0,0,1-17.58-14.14A19,19,0,0,1,42,140.77a4.33,4.33,0,0,0,2.47-4.41q-.12-31.92,0-63.85a4.07,4.07,0,0,0-2.36-4.11c-7.76-4.51-11.1-13-9-21.89.26-1.09.24-2.8-.42-3.47C28.12,38.32,14.59,24.74,1.5,11.63V196.5a10,10,0,0,0,10,10h185a10,10,0,0,0,10-10V11.5A10,10,0,0,0,196.5,1.5ZM154.56,121.9h2.8c3.83,1.57,5.15,4.13,4,7.77-.73,2.32-2.66,3.52-5.62,3.47-2.72,0-4.55-1.31-5.21-3.59C149.49,125.89,150.77,123.46,154.56,121.9Zm-9.92,22.34-5.44.49a1.71,1.71,0,0,0,.05.5c4.47,7.69.7,15.58-8.14,16.76a31.74,31.74,0,0,1-6.95,0c-1.17-.1-1.83.09-2.31,1.14a20.83,20.83,0,0,1-1.21,2c3.27.22,6.3.38,9.33.65,2.37.2,4.75.44,7.09.86,3.27.59,6.1,1.91,6.89,5.57.9,4.1.07,7.75-3.31,10.5a17,17,0,0,1-9.21,3.37,37.9,37.9,0,0,1-14.35-.82c-4.88-1.37-7.15-4.91-5.66-9,.56-1.55,1.79-2.86,2.74-4.33a12.75,12.75,0,0,1-1.62-1.51,4.49,4.49,0,0,1,.52-5.85c1.34-1.49,2.9-2.8,4.27-4.1-.13-.36-.13-.51-.2-.54-4.48-2.59-5.82-7.57-4.75-12.45,1.13-5.13,4.68-7.91,9.61-8.69,3-.47,6.07-.16,9.11-.13,2.33,0,4.65.22,7,.27,2.11,0,4.23,0,6.56,0Zm21.07,27H147.9V166.5a10.33,10.33,0,0,1,1.3-.29c3.5-.31,2.83-.59,2.85-3.43,0-5.24-.05-10.47.05-15.7,0-1.61-.45-2.55-2.06-2.89a17.2,17.2,0,0,1-2.22-.81c.19-1.47.32-2.86.58-4.22a1.19,1.19,0,0,1,.86-.76c4-.06,8.07,0,12.31,0v25.26c0,2.24,0,2.23,2.27,2.52.61.07,1.21.21,1.87.33ZM191,168.89c-4.47,2.06-9.11,3.13-14,2.2-3.94-.73-6.22-3-6.45-7-.28-4.81-.21-9.64-.27-14.46,0-1.8,0-3.6,0-5.59h-4.94c0-1.77-.05-3.37,0-5a1.28,1.28,0,0,1,.86-.83c4.92-.74,6.79-4.12,7.36-8.54.17-1.3.57-1.82,1.92-1.7s2.76,0,4.28,0v9.54H189v6.36h-9.3V147c0,4.25,0,8.5,0,12.75.05,3.64,1.37,4.85,5,4.57,1.44-.11,2.85-.44,4.4-.7l1.79,5Z"/></g></g></svg>