<svg xmlns="http://www.w3.org/2000/svg" viewBox="0 0 205 205"><defs><style>.cls-1{fill:#f05033;}.cls-2{fill:#fff;}</style></defs><title>git-color_1</title><g id="Layer_2" data-name="Layer 2"><g id="Layer_1-2" data-name="Layer 1"><rect class="cls-1" width="205" height="205" rx="10" ry="10"/><path class="cls-2" d="M103.67,122.41c-12.28.76-22.48-11.65-19.29-23.74.67-2.53.08-3.94-1.66-5.64-7.79-7.62-15.45-15.38-23.59-23.52-.14,1.36-.3,2.15-.3,2.94,0,21.07,0,42.13-.06,63.2a4.43,4.43,0,0,0,2.31,4.22,19,19,0,0,1,7.62,21.77C66,170.09,58.48,175.24,49.23,175a19.22,19.22,0,0,1-17.58-14.14,19,19,0,0,1,8.86-21.58A4.34,4.34,0,0,0,43,134.86Q42.86,102.94,43,71a4.07,4.07,0,0,0-2.36-4.11c-7.76-4.51-11.1-13-9-21.89.26-1.09.24-2.8-.42-3.47C26.62,36.82,13.09,23.24,0,10.13V10A10,10,0,0,1,10,0h2l4.9,4.91c8.34,8.35,16.71,16.66,25,25.06a4.36,4.36,0,0,0,4.55,1.47A19.13,19.13,0,0,1,69.11,54.35a4,4,0,0,0,1.3,4.28Q82.64,70.74,94.74,83a4.16,4.16,0,0,0,4.32,1.27c11.32-2.17,21.78,5.2,23.16,16.14A19.5,19.5,0,0,1,103.67,122.41Z"/><path class="cls-2" d="M189.47,167.39c-4.47,2.06-9.11,3.12-14,2.2-3.94-.74-6.22-3-6.46-7-.28-4.81-.21-9.63-.27-14.45,0-1.8,0-3.61,0-5.6h-4.94c0-1.77,0-3.36,0-5a1.26,1.26,0,0,1,.86-.82c4.92-.74,6.79-4.12,7.36-8.54.17-1.3.57-1.82,1.92-1.7s2.77,0,4.28,0v9.55h9.33v6.36h-9.3c0,1.14,0,2.11,0,3.07,0,4.25,0,8.5,0,12.75,0,3.64,1.37,4.85,5,4.57,1.43-.11,2.85-.45,4.4-.7l1.78,5Z"/><path class="cls-2" d="M155.86,120.4c3.83,1.57,5.15,4.13,4,7.77-.73,2.32-2.66,3.51-5.62,3.46-2.72,0-4.55-1.31-5.21-3.59-1-3.66.23-6.09,4-7.65Z"/><path class="cls-2" d="M143.14,137.48v5.27l-5.44.49a1.44,1.44,0,0,0,.05.5c4.47,7.69.7,15.58-8.14,16.76a32.13,32.13,0,0,1-7,0c-1.17-.1-1.83.09-2.31,1.14a21.7,21.7,0,0,1-1.21,2c3.27.22,6.31.38,9.33.64,2.37.21,4.75.44,7.09.86,3.27.59,6.1,1.91,6.9,5.57.89,4.11.07,7.75-3.32,10.5a16.91,16.91,0,0,1-9.21,3.37,38,38,0,0,1-14.35-.82c-4.88-1.37-7.15-4.91-5.66-9,.56-1.55,1.79-2.86,2.75-4.33A11.86,11.86,0,0,1,111,169a4.49,4.49,0,0,1,.52-5.85c1.34-1.49,2.9-2.8,4.27-4.1-.13-.37-.13-.51-.2-.54-4.48-2.58-5.83-7.57-4.75-12.45,1.13-5.13,4.68-7.91,9.61-8.69,3-.47,6.07-.16,9.11-.13,2.32,0,4.65.21,7,.26C138.69,137.52,140.81,137.48,143.14,137.48Zm-11.73,11.17c0-3.59-2.12-5.61-5.79-5.59-3.93,0-6.18,2.15-6.14,5.83,0,3.46,2.24,5.42,6,5.35S131.43,152,131.41,148.65Zm-6.57,30.49c2-.28,3.89-.44,5.74-.86s3-1.82,2.81-3.2c-.3-1.83-1.87-1.93-3.23-2.05-3.5-.31-7-.5-10.52-.72-.39,0-1,0-1.14.2a10.36,10.36,0,0,0-1.44,3.44c-.13,1.25,1,2,2.18,2.28C121.09,178.64,123,178.85,124.83,179.14Z"/><path class="cls-2" d="M146.32,141.88c.19-1.47.32-2.86.58-4.22a1.21,1.21,0,0,1,.86-.77c4-.05,8.07,0,12.31,0v2q0,11.65,0,23.31c0,2.24,0,2.23,2.27,2.52.61.08,1.21.21,1.87.33v4.79H146.4V165a9.61,9.61,0,0,1,1.3-.29c3.5-.31,2.83-.59,2.85-3.44,0-5.23,0-10.46,0-15.69,0-1.61-.44-2.55-2.06-2.89A16.62,16.62,0,0,1,146.32,141.88Z"/></g></g></svg>