<svg xmlns="http://www.w3.org/2000/svg" viewBox="0 0 205 205"><defs><style>.cls-1{fill:#999;}</style></defs><title>html5-gray</title><g id="Layer_2" data-name="Layer 2"><g id="Layer_1-2" data-name="Layer 1"><path class="cls-1" d="M195,0H10A10,10,0,0,0,0,10V195a10,10,0,0,0,10,10H195a10,10,0,0,0,10-10V10A10,10,0,0,0,195,0ZM135.83,23h8.7V39.66h11.59V48H135.83Zm-32.24,0h8.75l5.38,8.78L123.1,23h8.75V48h-8.34V35.18l-5.72,9.19h-.14l-5.73-9.19V48h-8.33ZM76.78,23H100v8.33H92.72V48H84.38V31.33h-7.6Zm-27.9,0h8.33v8.33h7.61V23h8.69V48H64.82V39.66H57.21V48H48.88ZM156.55,63.82l-1,11-.44,4.88H71.4l2,22.66h79.74l-.53,5.83-5.1,57.13L147.2,169l-44.49,12.33V182l-.1,0L57.75,169.54l-3.07-34.38h22l1.56,17.46,24.39,6.59.09,0v-.44l24.21-6.53,2.51-28.14H53.82L48.45,63.86,47.93,58H157.07Z"/></g></g></svg>