<svg xmlns="http://www.w3.org/2000/svg" viewBox="0 0 208 208"><defs><style>.cls-1{fill:none;stroke:#f16529;stroke-miterlimit:10;stroke-width:3px;}</style></defs><title>html5-outline-orange</title><g id="Layer_2" data-name="Layer 2"><g id="Layer_1-2" data-name="Layer 1"><path class="cls-1" d="M196.5,1.5H11.5a10,10,0,0,0-10,10v185a10,10,0,0,0,10,10h185a10,10,0,0,0,10-10V11.5A10,10,0,0,0,196.5,1.5Zm-59.17,23H146V41.16h11.59V49.5H137.33Zm-32.24,0h8.75l5.38,8.78,5.38-8.78h8.75v25H125V36.68l-5.72,9.19h-.14l-5.73-9.19V49.5h-8.33Zm-26.81,0h23.18v8.33H94.22V49.5H85.88V32.83h-7.6Zm-27.9,0h8.33v8.33h7.61V24.5H75v25H66.32V41.16H58.71V49.5H50.38ZM158,65.32l-1,11-.44,4.88H72.9l2,22.66h79.74l-.53,5.83L149,166.82l-.33,3.67-44.49,12.33v.65l-.1,0L59.25,171l-3.07-34.38h22l1.56,17.46,24.39,6.59.09,0v-.44l24.21-6.53,2.51-28.14H55.32L50,65.36l-.52-5.86H158.57Z"/></g></g></svg>