<svg xmlns="http://www.w3.org/2000/svg" viewBox="0 0 205 205"><defs><style>.cls-1{fill:#e44d26;}.cls-2{fill:#f16529;}.cls-3{fill:#fff;}</style></defs><title>html5-color</title><g id="Layer_2" data-name="Layer 2"><g id="Layer_1-2" data-name="Layer 1"><rect class="cls-1" width="205" height="205" rx="10" ry="10"/><path class="cls-2" d="M195,0H103V205h92a10,10,0,0,0,10-10V10A10,10,0,0,0,195,0Z"/><path id="path3036" d="M48.88,23h8.33v8.33h7.61V23h8.7V48h-8.7V39.67H57.21V48H48.88V23Z"/><path id="path3038" d="M84.38,31.33H76.78V23H100v8.33H92.72V48H84.38V31.33Z"/><path id="path3040" d="M103.59,23h8.75l5.38,8.78L123.1,23h8.75V48h-8.33V35.18l-5.72,9.2h-.14l-5.73-9.2V48h-8.33V23Z"/><path id="path3042" d="M135.83,23h8.7V39.67h11.59V48H135.83Z"/><polygon class="cls-3" points="102.71 58 102.64 58 47.93 58 48.45 63.86 53.82 124.07 102.71 124.07 129.44 124.07 126.92 152.22 102.71 158.75 102.71 159.19 102.61 159.21 78.22 152.63 76.67 135.16 64.81 135.16 54.68 135.16 57.75 169.55 102.61 182 102.71 181.97 102.71 181.33 147.2 169 147.53 165.33 152.63 108.19 153.16 102.37 147.31 102.37 102.71 102.37 73.42 102.37 71.4 79.7 102.71 79.7 155.06 79.7 155.13 79.7 155.57 74.82 156.56 63.82 157.07 58 102.71 58"/></g></g></svg>