<svg xmlns="http://www.w3.org/2000/svg" viewBox="0 0 149.99 150"><defs><style>.cls-1{fill:#f16529;}</style></defs><title>ig-outline-orange</title><g id="Layer_2" data-name="Layer 2"><g id="Layer_1-2" data-name="Layer 1"><path class="cls-1" d="M75,5h46.47A23.3,23.3,0,0,1,145,28.49q0,15.54,0,31.06,0,7.77,0,15.53V90.45q0,15.37,0,30.75c0,13.56-10.2,23.79-23.71,23.8H28.57A23.29,23.29,0,0,1,5,121.52Q5,75,5,28.58A23.29,23.29,0,0,1,28.48,5H75m0,131.14h45.53c9.83,0,15.7-5.83,15.7-15.58q0-15.22,0-30.44V59.77q0-15.14,0-30.28c0-9.79-5.85-15.63-15.65-15.63H29.44c-9.76,0-15.58,5.78-15.58,15.47v91.3c0,9.71,5.81,15.51,15.54,15.51H74.92M75,0H28.48A28.26,28.26,0,0,0,0,28.57q0,46.48,0,92.95A28.26,28.26,0,0,0,28.57,150h92.71c16.26,0,28.7-12.5,28.71-28.79q0-23.07,0-46.12,0-23.3,0-46.6A28.25,28.25,0,0,0,121.43,0Zm0,131.14H29.39c-6.94,0-10.54-3.59-10.54-10.51V29.33c0-6.89,3.62-10.47,10.58-10.47h91.05q10.64,0,10.65,10.63,0,22.71,0,45.42t0,45.64q0,10.58-10.7,10.58Z"/><path class="cls-1" d="M75,42.47h0A32.53,32.53,0,1,1,42.47,75,32.56,32.56,0,0,1,75,42.47m0,56.21h0a23.61,23.61,0,1,0-16.8-7,23.73,23.73,0,0,0,16.8,7m0-61.21A37.53,37.53,0,1,0,112.52,75,37.64,37.64,0,0,0,75,37.47Zm0,56.21h0a18.68,18.68,0,0,1,0-37.35h0A18.68,18.68,0,0,1,75,93.68Z"/><path class="cls-1" d="M112.47,33.12h0a4.42,4.42,0,0,1,.07,8.84h-.06a4.42,4.42,0,1,1,0-8.84m0-5a9.42,9.42,0,1,0,0,18.84h.12a9.42,9.42,0,0,0-.1-18.84Z"/></g></g></svg>