<svg xmlns="http://www.w3.org/2000/svg" viewBox="0 0 149.99 150"><defs><style>.cls-1{fill:#f16529;}</style></defs><title>ig-solid-orange</title><g id="Layer_2" data-name="Layer 2"><g id="Layer_1-2" data-name="Layer 1"><path class="cls-1" d="M150,28.48A28.25,28.25,0,0,0,121.43,0Q74.95,0,28.48,0A28.26,28.26,0,0,0,0,28.57q0,46.48,0,92.95A28.26,28.26,0,0,0,28.57,150h92.71c16.26,0,28.7-12.5,28.71-28.79q0-23.07,0-46.12Q150,51.78,150,28.48ZM131.14,74.91q0,22.82,0,45.64,0,10.58-10.7,10.58H29.39c-6.94,0-10.54-3.59-10.54-10.51V29.33c0-6.89,3.62-10.47,10.58-10.47h91.05q10.64,0,10.65,10.63Q131.15,52.2,131.14,74.91Z"/><path class="cls-1" d="M75,37.47A37.53,37.53,0,1,0,112.52,75,37.64,37.64,0,0,0,75,37.47Zm0,56.21A18.68,18.68,0,1,1,93.68,75.15,18.61,18.61,0,0,1,75,93.68Z"/><path class="cls-1" d="M121.89,37.49A9.42,9.42,0,1,0,112.63,47,9.4,9.4,0,0,0,121.89,37.49Z"/></g></g></svg>