<svg xmlns="http://www.w3.org/2000/svg" viewBox="0 0 205 205"><defs><style>.cls-1{fill:#1f2e3b;}.cls-2{fill:#fff;}.cls-3{fill:#21ace1;}</style></defs><title>jquery-color</title><g id="Layer_2" data-name="Layer 2"><g id="Layer_1-2" data-name="Layer 1"><rect class="cls-1" width="205" height="205" rx="10" ry="10"/><path class="cls-2" d="M61,160.53c-3.21,0-6.43,0-9.64,0a16.81,16.81,0,0,1-6.41-1.22,10.73,10.73,0,0,1-6.62-8.73c-.72-4.31.1-8.47,1.35-12.57a24.41,24.41,0,0,1,5.57-10,17.44,17.44,0,0,1,10.83-5.31,20.22,20.22,0,0,1,9.75.9c4.93,1.87,7.64,5.53,8.42,10.69a18.93,18.93,0,0,1-1.1,8.78c-1,2.95-2,5.85-3.09,8.77-.33.92-.28,1,.68,1,.81,0,1.62,0,2.43,0s.84.25.68.89c-.5,1.93-1,3.86-1.52,5.79a1.07,1.07,0,0,1-1.23.85c-3.36,0-6.73,0-10.09,0Zm-4.22-7.87v0h3.64c.95,0,1.14-.15,1.39-1l2.67-9.44a18,18,0,0,0,.92-5.77c-.15-3.14-1.82-5.26-4.79-5.84a12.79,12.79,0,0,0-3-.18A8.21,8.21,0,0,0,50.8,134a20.65,20.65,0,0,0-3.45,13.58c.26,3.22,2.1,4.83,5.34,5.1C54,152.75,55.41,152.66,56.77,152.66Z"/><path class="cls-2" d="M124.29,148.36c-3,0-5.92,0-8.88,0-.51,0-.75.14-.71.67,0,.27,0,.55,0,.83a2.78,2.78,0,0,0,2.41,3,16.31,16.31,0,0,0,3.22.34c3.72,0,7.45,0,11.17,0,1.07,0,1.17.11,1,1.13-.36,1.81-.76,3.62-1.11,5.43a1,1,0,0,1-1.08.92c-4.6,0-9.19,0-13.79,0a13.56,13.56,0,0,1-5.91-1.4,7.43,7.43,0,0,1-4.18-6,22.33,22.33,0,0,1,.62-7.72,29,29,0,0,1,2.68-7.94,13,13,0,0,1,8.14-6.62,22,22,0,0,1,11.85-.19,7.58,7.58,0,0,1,5.88,7.37,31.23,31.23,0,0,1-1.29,9.56c-.14.53-.53.66-1,.66h-8.94Zm-2.76-6.25h4.66a.86.86,0,0,0,1-.77,3,3,0,0,0-2.26-3.74,10.8,10.8,0,0,0-3.21-.27,5.81,5.81,0,0,0-5.4,3.81c-.31.76-.18,1,.63,1Z"/><path class="cls-2" d="M92.35,160.29c-2.68,0-5.37.11-8,0-4.31-.22-7-3.06-7.31-7.37a31.46,31.46,0,0,1,1-8.78q1.32-6.2,2.62-12.41c.22-1,.38-1.18,1.45-1.19h5.75c.85,0,1,.21.85,1-1,5.17-2.09,10.33-3.11,15.5a16.38,16.38,0,0,0-.32,2.84c0,2,.89,3.07,2.92,3.17,1.76.09,3.53,0,5.3,0,.54,0,.75-.36.86-.85q1.32-6.14,2.66-12.27.92-4.24,1.82-8.47c.17-.79.43-1,1.23-1h5.81c.81,0,1,.22.8,1l-5.94,27.87c-.17.78-.4,1-1.23,1H92.35Z"/><path class="cls-2" d="M168.57,144.75c.3-.39.49-.63.67-.88,3.74-5.48,7.5-10.95,11.21-16.45a2.49,2.49,0,0,1,2.36-1.25c2.51.06,5,0,7.53,0a3.71,3.71,0,0,1,.77.17,3.4,3.4,0,0,1-.32.72q-9.49,12.62-19,25.25a6.73,6.73,0,0,0-1,2.1c-.49,1.67-.89,3.37-1.31,5.06a1.07,1.07,0,0,1-1.17.93h-7.15c-.7,0-.86-.23-.69-.92.44-1.75.94-3.49,1.32-5.25a4.53,4.53,0,0,0,0-2.06c-1-3.77-2.12-7.52-3.19-11.28-.28-1-.18-1.1.79-1.11h7c.87,0,1.07.17,1.26,1q.37,1.65.75,3.29C168.39,144.25,168.46,144.4,168.57,144.75Z"/><path class="cls-2" d="M152.16,130.63c2.81,0,5.62,0,8.43,0a9.48,9.48,0,0,1,1.65.16,4.51,4.51,0,0,1,4,3.85c.16.81.38,1.61.57,2.42s0,.91-.71.92c-1.55,0-3.11,0-4.66,0H149.72c-.93,0-1.11.14-1.29,1l-4.1,19.72c0,.12-.06.25-.09.37-.28,1.05-.49,1.24-1.59,1.25-1.77,0-3.53,0-5.3,0h-.06c-1.11-.06-1.3-.29-1.07-1.37q1.85-8.66,3.7-17.33,1.06-5,2.11-9.91c.22-1,.35-1.17,1.39-1.17h8.75Z"/><path class="cls-2" d="M18.14,172.45H14.63c-.67,0-.85-.22-.7-.88.45-2,.93-3.93,1.4-5.89a1,1,0,0,1,1.06-.8c.57,0,1.15,0,1.72,0a2.56,2.56,0,0,0,2.15-.92,9,9,0,0,0,2.08-4.24q2.06-9.36,4.1-18.73c.26-1.2.39-1.31,1.62-1.31h6c1,0,1.18.14,1,1.14-1.53,7-3,14.08-4.62,21.1a28.54,28.54,0,0,1-2,5.62,8.16,8.16,0,0,1-8,4.92H18.14Z"/><path class="cls-2" d="M31.47,137.71H28.09c-.67,0-.83-.21-.68-.87q.6-2.71,1.21-5.41c.18-.79.42-1,1.23-1h6.45c.82,0,1,.21.8,1-.4,1.8-.81,3.61-1.19,5.41a.94.94,0,0,1-1.07.85C33.73,137.7,32.6,137.71,31.47,137.71Z"/><path class="cls-3" d="M142.63,91.14a36.39,36.39,0,0,1-7.53,10.39c-8.49,8.26-18.85,11.31-30.46,10.95-10.41-.32-19.39-4.25-27.29-10.78-8.93-7.38-14.67-16.74-16.5-28.26-1.24-7.82-.27-15.38,4.06-22.21a51.29,51.29,0,0,1,5.51-6.95c-.53,1.7-1.15,3.38-1.57,5.11A37.3,37.3,0,0,0,72.46,76c6.7,12.84,17.2,21.26,31.18,24.86,10.28,2.65,20.51,2.09,30.16-3a28.81,28.81,0,0,0,8.14-6.36,3,3,0,0,0,.35-.71Z"/><path class="cls-3" d="M144.65,69.7a23.8,23.8,0,0,1-7.21,9.9c-6,4.92-13,6.49-20.53,6.32-9.86-.23-17.69-4.66-24-11.82-7.65-8.66-10.2-20.59-5.36-30.46a83.32,83.32,0,0,1,4.58-7.33c-.61,2.57-1.33,4.75-1.62,7-1.06,8.13,1.4,15.37,6.4,21.66,7.7,9.71,17.82,14.55,30.29,13.69a24.14,24.14,0,0,0,16.47-7.91Z"/><path class="cls-3" d="M110,32.5a17.77,17.77,0,0,0,2.9,16c5.44,7.64,13,10.69,22.25,9.46a12.83,12.83,0,0,0,6.56-3.17,14.76,14.76,0,0,1-5.8,5.85,18.1,18.1,0,0,1-12.2,1.79,21.17,21.17,0,0,1-17.42-17.65A15,15,0,0,1,110,32.5Z"/></g></g></svg>