<svg xmlns="http://www.w3.org/2000/svg" viewBox="0 0 205 205"><defs><style>.cls-1{fill:#e4a229;}.cls-2{fill:#f0c026;}.cls-3{fill:#fff;}</style></defs><title>js-color</title><g id="Layer_2" data-name="Layer 2"><g id="Layer_1-2" data-name="Layer 1"><rect class="cls-1" width="205" height="205" rx="10" ry="10"/><path class="cls-2" d="M195,0H103V205h92a10,10,0,0,0,10-10V10A10,10,0,0,0,195,0Z"/><path d="M126,47.5H103V40.38h10.55c-2.72-3-4.92-5.86-7.58-8.21-3-2.69-3.68-5.8-2.83-9.62h22.37v7.07H115.29c3.09,3.41,5.66,6.52,8.54,9.32a6.61,6.61,0,0,1,2.19,6A23.67,23.67,0,0,0,126,47.5Z"/><path d="M90.23,22.5h8.55v25H78.92V39H90.23Z"/><path class="cls-3" d="M57.58,130c.75-8.73,1.41-16.81,2.14-24.88,1.34-14.83,2.75-29.66,4.05-44.5.17-1.91.4-3.11,2.81-3.11,25.27,0,50.54,0,75.81,0a9.45,9.45,0,0,1,1.24.19l3.79,42.43h-20l-2-20.93-43.33-.95-3,31.79h68.23c-.22,3.14-.36,5.94-.61,8.74q-2.13,24-4.3,47.94c-.43,4.74-.46,4.73-4.89,6-11.49,3.19-23,6.41-34.48,9.55a6.2,6.2,0,0,1-3.1.13c-12.11-3.27-24.18-6.67-36.3-9.93-2.54-.68-3.68-1.71-3.85-4.63-.5-8.72-1.5-17.4-2.28-26.1a10.11,10.11,0,0,1,.16-1.6c6.14,0,12.18-.06,18.22.1.55,0,1.43,1.38,1.54,2.2.5,4,.71,8,1.23,12a3,3,0,0,0,1.73,2.08c6.16,1.78,12.31,3.68,18.59,4.91,2.51.49,5.37-.42,8-1,4.67-1.1,9.27-2.5,13.93-3.69,1.54-.39,2.32-.86,2.46-2.75.56-7.8,1.41-15.59,2.19-23.85Z"/></g></g></svg>