<svg xmlns="http://www.w3.org/2000/svg" viewBox="0 0 205 205"><defs><style>.cls-1{fill:#999;}</style></defs><title>js-gray</title><g id="Layer_2" data-name="Layer 2"><g id="Layer_1-2" data-name="Layer 1"><path class="cls-1" d="M195,0H10A10,10,0,0,0,0,10V195a10,10,0,0,0,10,10H195a10,10,0,0,0,10-10V10A10,10,0,0,0,195,0ZM103.11,22.54h22.36v7.07H115.3c3.09,3.41,5.66,6.52,8.53,9.32a6.62,6.62,0,0,1,2.19,6,22.2,22.2,0,0,0,0,2.61H103V40.37h10.55c-2.72-3-4.92-5.86-7.58-8.21C102.89,29.47,102.26,26.37,103.11,22.54ZM78.93,39h11.3V22.5h8.55v25H78.93Zm68.46,71c-.22,3.14-.37,5.94-.62,8.74q-2.12,24-4.3,47.94c-.43,4.73-.45,4.72-4.89,6-11.49,3.19-23,6.4-34.47,9.55a6.17,6.17,0,0,1-3.1.13c-12.11-3.27-24.19-6.67-36.3-9.93-2.54-.68-3.68-1.7-3.85-4.63-.5-8.71-1.49-17.4-2.28-26.1a9.71,9.71,0,0,1,.16-1.6c6.14,0,12.18-.06,18.22.1.55,0,1.43,1.38,1.54,2.2.5,4,.71,8,1.23,12a3,3,0,0,0,1.73,2.08c6.16,1.78,12.31,3.68,18.59,4.91,2.51.49,5.37-.42,8-1,4.68-1.1,9.28-2.5,13.93-3.69,1.54-.39,2.32-.86,2.46-2.75.56-7.8,1.4-15.59,2.19-23.85h-68c.75-8.73,1.42-16.81,2.15-24.88,1.34-14.84,2.75-29.67,4.05-44.51.17-1.91.4-3.11,2.81-3.1q37.9.06,75.81,0a9.2,9.2,0,0,1,1.24.19c1.26,14.1,2.52,28.16,3.79,42.43h-20c-.65-6.78-1.3-13.57-2-20.93l-43.33-1c-1,10.92-2,21.18-2.95,31.79Z"/></g></g></svg>