<svg xmlns="http://www.w3.org/2000/svg" viewBox="0 0 205 205"><defs><style>.cls-1{fill:#fb503b;}.cls-2{fill:#fff;}</style></defs><title>laravel-color</title><g id="Layer_2" data-name="Layer 2"><g id="Layer_1-2" data-name="Layer 1"><rect class="cls-1" width="205" height="205" rx="10" ry="10"/><path class="cls-2" d="M97.77,107.2c-11.64,3-23,5.93-34.4,8.84-7.34,1.88-9.17,1-12.38-6Q34.06,73.33,17.13,36.59c-3.55-7.72-3.05-8.45,5.31-9.08,9.37-.7,18.75-1.34,28.07-2.4,4.72-.54,7.53.89,10,5.06,12.87,22,26.07,43.77,39,65.7,1.36,2.31,2.62,2.76,5.11,2.14,15.71-3.88,31.46-7.61,47.2-11.4.61-.15,1.21-.33,2.15-.59-.59-1-1-1.81-1.53-2.55-5-7.16-10.09-14.29-15.09-21.46-1.81-2.59-1.47-3.57,1.66-4.13,8.39-1.51,16.79-3,25.24-4.13a6.23,6.23,0,0,1,4.67,2.09c6.87,8.19,13.5,16.58,20.24,24.88,1.6,2,.69,2.82-1.32,3.35q-9.54,2.53-19.07,5.11c-1.33.36-2.64.77-4.34,1.27L175.22,105c3.41,4.6,6.76,9.24,10.23,13.79,1.74,2.28,1.23,3.69-1.34,4.61-19.51,7-39,14-58.54,20.85-4.49,1.58-6.3.74-9-3.88-5.79-10-11.4-20.08-17.09-30.13ZM23,32.57l36.87,76.14,33.87-8.14a7.72,7.72,0,0,0-.35-1.51Q73.89,65.28,54.31,31.54a3,3,0,0,0-2.2-1.38C42.66,30.86,33.21,31.7,23,32.57Zm82.07,72.7c5.73,9.79,11.19,19.08,16.6,28.4,1.08,1.85,2.21,2.41,4.46,1.63,16-5.55,32-10.92,48-16.37,1-.34,1.94-.77,3.19-1.27-.67-1.06-1.12-1.88-1.67-2.64-5.2-7.15-10.5-14.23-15.59-21.46-1.32-1.87-2.58-2.07-4.61-1.51-8.11,2.2-16.27,4.23-24.4,6.35C122.59,100.63,114.08,102.89,105.09,105.27Zm76.58-26a5.61,5.61,0,0,0-.36-1.15c-3.06-3.9-6.6-7.52-9.08-11.75-4-6.82-9-9.18-16.64-6.41-3.62,1.32-7.63,1.55-11.88,2.36,5.36,7.39,10.33,14.28,15.38,21.11a2.58,2.58,0,0,0,2.1.92C168,82.78,174.74,81,181.67,79.3Z"/><path class="cls-2" d="M148.65,168.31c-.35,7,6,10.08,13.34,6l1.88,3.12a10.38,10.38,0,0,1-1.48,1,15.72,15.72,0,0,1-12.6.41,8.13,8.13,0,0,1-4.86-5.53,19.85,19.85,0,0,1-.08-12,10.74,10.74,0,0,1,14.61-6.63,7.44,7.44,0,0,1,4.69,5.61,75.59,75.59,0,0,1,.64,8H148.65Zm11.54-3.49c.2-2.42.22-4.72-1.87-6.24a5.71,5.71,0,0,0-6.42-.23c-2.47,1.38-3.13,3.76-3.27,6.47Z"/><path class="cls-2" d="M59.8,164.33c0-2,.66-4.65-2.11-6.13-2.46-1.31-5.39-.42-8.06,2.37l-3-2.33c3-4.6,10.73-5.93,14.91-2.63A6.61,6.61,0,0,1,64,161.06c0,3.78,0,7.57,0,11.35,0,2.73.43,3.25,3.24,4.17-.37,1-.44,2.56-1.19,3.06-1.59,1-4-.25-5.72-2.79a9.51,9.51,0,0,1-7.53,3c-3.52-.15-6-2.07-6.76-5.26a6.44,6.44,0,0,1,3.68-7.7C52.85,165.69,56.2,165.22,59.8,164.33Zm.05,3.48c-2.76.65-5.24,1-7.56,1.86a2.81,2.81,0,0,0-1.8,3.54,4.88,4.88,0,0,0,2.32,2.8,5.18,5.18,0,0,0,7-4.91C59.85,170.27,59.85,169.45,59.85,167.81Z"/><path class="cls-2" d="M113.33,176.27c-.6,1.45-.75,3-1.51,3.4-1.65,1-3.82-.27-5.66-2.78a9.56,9.56,0,0,1-7.81,3,6.67,6.67,0,0,1-6.42-5.15,6.44,6.44,0,0,1,3.39-7.65,38.64,38.64,0,0,1,7.48-2,13.52,13.52,0,0,1,2.77,0c0-2.61.7-5.24-2-6.78-2.43-1.39-5.27-.53-8.18,2.29l-3-2.38c2.55-3.58,6.07-4.57,10.12-4.25,5,.39,7.3,2.91,7.35,7.87,0,3.64,0,7.29,0,10.93C109.89,174.58,110.29,176.21,113.33,176.27Zm-7.72-8.47a68.16,68.16,0,0,0-7.46,1.84,3.14,3.14,0,0,0-1.86,3.94,3.25,3.25,0,0,0,3.45,2.67,9.62,9.62,0,0,0,3.38-.68C106.57,174.16,105.58,171.17,105.61,167.8Z"/><path class="cls-2" d="M117.24,154.36h5l6.25,20.34c1.81-6,3.68-11.81,5.28-17.69.59-2.16,1.51-3.17,3.76-2.74a10,10,0,0,0,1.64,0c-.15.66-.23,1.17-.39,1.65-2.39,7.31-4.82,14.6-7.16,21.92a2,2,0,0,1-2.32,1.65c-3.44-.07-3.44,0-4.53-3.19Z"/><path class="cls-2" d="M23.22,179.29V147.37h4.38v28.09H40.78v3.83Z"/><path class="cls-2" d="M181.71,175.81c-.45,1.38,1,3.06-1.12,3.78-2.62.89-5.68,0-6.74-2.07a7.23,7.23,0,0,1-.82-3.14c-.05-9.61,0-19.22,0-28.83a2.71,2.71,0,0,1,.16-.55h4.28v2.09q0,12.46,0,24.92C177.47,175.54,177.91,176,181.71,175.81Z"/><path class="cls-2" d="M79.18,179.39H74.85V154.52C78,154,78,154,79.13,157.22c2.24-2.9,5.17-3.73,8.73-3.21v4.17A41.87,41.87,0,0,0,82,159a3.71,3.71,0,0,0-2.89,4.13C79.3,168.5,79.18,173.85,79.18,179.39Z"/></g></g></svg>