<svg xmlns="http://www.w3.org/2000/svg" viewBox="0 0 205 205"><defs><style>.cls-1{fill:#999;}</style></defs><title>laravel-gray</title><g id="Layer_2" data-name="Layer 2"><g id="Layer_1-2" data-name="Layer 1"><path class="cls-1" d="M158.32,158.59a5.71,5.71,0,0,0-6.42-.23c-2.47,1.38-3.13,3.76-3.27,6.47h11.57C160.4,162.4,160.41,160.1,158.32,158.59Z"/><path class="cls-1" d="M98.15,169.65a3.15,3.15,0,0,0-1.86,3.94,3.25,3.25,0,0,0,3.45,2.67,9.62,9.62,0,0,0,3.38-.68c3.45-1.41,2.46-4.39,2.48-7.77A68.06,68.06,0,0,0,98.15,169.65Z"/><path class="cls-1" d="M52.3,169.67a2.81,2.81,0,0,0-1.8,3.54,4.89,4.89,0,0,0,2.32,2.8,5.18,5.18,0,0,0,7-4.91v-3.28C57.1,168.47,54.62,168.86,52.3,169.67Z"/><path class="cls-1" d="M195,0H10A10,10,0,0,0,0,10V195a10,10,0,0,0,10,10H195a10,10,0,0,0,10-10V10A10,10,0,0,0,195,0ZM40.78,179.3H23.22V147.38H27.6v28.08H40.78Zm25.34.34c-1.59,1-4-.25-5.73-2.79a9.5,9.5,0,0,1-7.53,3c-3.51-.15-6-2.07-6.75-5.26s.54-6.47,3.67-7.7,6.42-1.69,10-2.58c0-2,.66-4.65-2.11-6.13-2.46-1.31-5.39-.42-8.06,2.37l-3-2.33c3-4.61,10.73-5.94,14.92-2.63A6.61,6.61,0,0,1,64,161.06c0,3.79,0,7.57,0,11.35,0,2.73.43,3.25,3.24,4.17C66.93,177.63,66.86,179.15,66.12,179.64Zm21.75-21.46A40.59,40.59,0,0,0,82,159a3.71,3.71,0,0,0-2.89,4.12c.17,5.34.06,10.69.06,16.23H74.85V154.52C78,154,78,154,79.14,157.22c2.23-2.9,5.17-3.73,8.73-3.21Zm24,21.49c-1.64,1-3.81-.27-5.66-2.78a9.53,9.53,0,0,1-7.81,3,6.66,6.66,0,0,1-6.41-5.15,6.42,6.42,0,0,1,3.39-7.64,38.88,38.88,0,0,1,7.48-2,13.43,13.43,0,0,1,2.78,0c0-2.61.69-5.24-2-6.78-2.43-1.38-5.27-.53-8.19,2.3l-3-2.38c2.55-3.58,6.07-4.57,10.11-4.25,5,.4,7.3,2.92,7.35,7.87,0,3.65,0,7.29,0,10.94,0,1.85.41,3.48,3.46,3.54C112.73,177.72,112.59,179.23,111.82,179.67Zm26.93-23.73c-2.39,7.3-4.82,14.6-7.17,21.92a2,2,0,0,1-2.32,1.64c-3.44-.07-3.44,0-4.53-3.18-2.48-7.27-4.95-14.53-7.48-22h5c2.07,6.76,4.14,13.48,6.24,20.34,1.82-6,3.68-11.81,5.28-17.69.59-2.16,1.51-3.16,3.76-2.74a9.73,9.73,0,0,0,1.64,0C139,154.94,138.91,155.45,138.75,155.94ZM162,174.27c.58,1,1.18,2,1.88,3.12a11.06,11.06,0,0,1-1.48,1,15.7,15.7,0,0,1-12.6.41,8.1,8.1,0,0,1-4.86-5.53,19.87,19.87,0,0,1-.08-12,10.73,10.73,0,0,1,14.61-6.63,7.42,7.42,0,0,1,4.69,5.61,74.85,74.85,0,0,1,.64,8H148.66C148.31,175.34,154.7,178.39,162,174.27Zm18.6,5.32c-2.63.89-5.68,0-6.75-2.06a7.25,7.25,0,0,1-.81-3.14c-.06-9.61,0-19.22,0-28.83a2.66,2.66,0,0,1,.16-.56h4.28v2.1q0,12.45,0,24.91c0,3.53.45,4,4.24,3.8C181.26,177.19,182.72,178.88,180.6,179.59Zm7.22-95.51q-9.54,2.53-19.07,5.11c-1.33.36-2.64.77-4.34,1.27L175.22,105c3.41,4.6,6.76,9.23,10.23,13.78,1.74,2.28,1.23,3.69-1.34,4.61-19.51,7-39,14-58.54,20.85-4.49,1.58-6.29.74-9-3.88-5.79-10-11.4-20.08-17.09-30.13l-1.73-3.05c-11.64,3-23,5.93-34.4,8.83-7.35,1.88-9.17,1-12.38-6Q34.06,73.33,17.14,36.59c-3.55-7.72-3-8.45,5.31-9.08,9.37-.7,18.74-1.34,28.07-2.4,4.72-.53,7.53.89,10,5.06,12.87,22,26.07,43.77,39,65.7,1.36,2.32,2.62,2.76,5.11,2.15,15.71-3.89,31.46-7.62,47.19-11.4.61-.15,1.21-.33,2.15-.59-.6-1-1-1.81-1.54-2.55-5-7.16-10.08-14.29-15.09-21.46-1.8-2.59-1.46-3.57,1.66-4.14,8.39-1.5,16.8-3,25.24-4.13a6.24,6.24,0,0,1,4.67,2.1c6.87,8.19,13.5,16.58,20.24,24.88C190.74,82.7,189.82,83.55,187.82,84.08ZM172.23,66.41c-4-6.82-9-9.19-16.64-6.41-3.62,1.31-7.63,1.55-11.87,2.35,5.35,7.39,10.32,14.28,15.37,21.12a2.62,2.62,0,0,0,2.1.92c6.79-1.61,13.55-3.34,20.48-5.08a5.32,5.32,0,0,0-.36-1.15C178.25,74.26,174.71,70.64,172.23,66.41ZM155.52,92.06c-8.11,2.2-16.27,4.22-24.4,6.35-8.53,2.22-17,4.49-26,6.86,5.73,9.8,11.19,19.09,16.6,28.4,1.08,1.85,2.22,2.41,4.47,1.63,16-5.55,32-10.92,48-16.37,1-.33,1.94-.77,3.19-1.26-.67-1.06-1.12-1.89-1.67-2.64-5.2-7.15-10.49-14.23-15.59-21.46C158.81,91.7,157.55,91.5,155.52,92.06ZM54.31,31.55a3,3,0,0,0-2.2-1.39c-9.45.71-18.89,1.55-29.09,2.42,12.47,25.77,24.66,50.94,36.86,76.14l33.87-8.14a7.58,7.58,0,0,0-.35-1.51Q73.89,65.29,54.31,31.55Z"/></g></g></svg>