<svg xmlns="http://www.w3.org/2000/svg" viewBox="0 0 209 208"><defs><style>.cls-1{fill:none;stroke:#999;stroke-miterlimit:10;stroke-width:3px;}</style></defs><title>mysql-outline-gray</title><g id="Layer_2" data-name="Layer 2"><g id="Layer_1-2" data-name="Layer 1"><path class="cls-1" d="M156.79,161.46c0-2.08-.94-3.33-2.91-3.4-3.7-.14-7.42-.13-11.12,0a2.81,2.81,0,0,0-2.85,3.19c0,4,0,7.93,0,11.9a3.08,3.08,0,0,0,3,3.39c1.86.19,3.75,0,6.37,0l-4.4-3.82c4.56-1.48,7.75.2,10.81,3.93a17.86,17.86,0,0,0,1-3.61C156.82,169.22,156.72,165.34,156.79,161.46Zm0,0c0-2.08-.94-3.33-2.91-3.4-3.7-.14-7.42-.13-11.12,0a2.81,2.81,0,0,0-2.85,3.19c0,4,0,7.93,0,11.9a3.08,3.08,0,0,0,3,3.39c1.86.19,3.75,0,6.37,0l-4.4-3.82c4.56-1.48,7.75.2,10.81,3.93a17.86,17.86,0,0,0,1-3.61C156.82,169.22,156.72,165.34,156.79,161.46ZM197.5,1.5H11.5a10,10,0,0,0-10,10v185a10,10,0,0,0,10,10h186a10,10,0,0,0,10-10V11.5A10,10,0,0,0,197.5,1.5ZM63,35.32c1.27-1.82,5.15-2.47,7.87-2.46a14,14,0,0,1,7.44,2.58c5.71,4,12.19,5.25,18.77,7,14.6,3.85,25.81,13.51,34.15,25.49,7,10,12,21.41,17.2,32.51,2.71,5.76,6.2,9.55,12.18,12.06,9.11,3.83,16.84,9.9,23.87,18.6l-19.24,4.22,22.83,19.41-1.27,1.51c-8.65-8.69-23.52-9.47-29.24-24l19.64-4c.25-.39.49-.79.73-1.18-7.35-3.92-14.47-8.43-22.15-11.54-5-2.05-8.52-4.68-10.63-9.58-3.1-7.17-6.38-14.28-9.67-21.37a73.52,73.52,0,0,0-37-36.91,6,6,0,0,0-2.34-.85c-9,.09-16.27-4.72-24-8.39-1.79-.85-4.31-.2-6.49-.24.52,2.15.4,4.85,1.68,6.35,5.88,6.89,9.26,14.9,11.94,23.39.93,2.95,2.28,6.13,4.39,8.28,3.32,3.36,3.09,6.58,1.59,10.44a34.45,34.45,0,0,0,.15,26.29A34.13,34.13,0,0,0,88.67,118l1.4-.53c1.16-6.26.87-13.08,6.34-17.56l15.37,27.91-.77.7L96.64,111.22c-.32,1.86-.66,4.32-1.2,6.73-1.12,5.09-6.12,6.94-9.13,2.8s-6-9.57-6.48-14.64C79.2,99,81,91.68,81.62,84.44c.14-1.5.33-3.24-.25-4.53-2.5-5.57-5.21-11.06-8-16.5-2.47-4.84-5.11-9.59-7.76-14.33-1-1.73-2.85-3.23-3.12-5C62,41.15,61.58,37.4,63,35.32ZM92.81,61.25l-1.33.25-4.26-6.4L88,53.59c1.47.85,3.47,1.38,4.27,2.66S92.69,59.55,92.81,61.25Zm-24.62,119H62.67v-21l-.42-.16a14.56,14.56,0,0,0-.86,1.48c-2.5,5.52-5,11-7.46,16.58a5.43,5.43,0,0,1-5.45,3.67A5.48,5.48,0,0,1,43,177.08c-2.36-5.4-4.83-10.75-7.27-16.11a4.27,4.27,0,0,0-1.39-1.79v21H28.67V159.31c0-4,.55-4.75,3.73-5.5,3.74-.88,6.17.06,7.57,3.2,2.42,5.37,4.7,10.8,7,16.2.36.81.76,1.61,1.36,2.88,1.65-3.68,3.12-6.94,4.6-10.21,1.34-3,2.63-6,4.06-9A6.67,6.67,0,0,1,67,154.78a3.26,3.26,0,0,1,1.16,2.12C68.22,164.63,68.19,172.36,68.19,180.22Zm32.07.58c0,4.29-1.42,6.23-5.65,7a46,46,0,0,1-7.79.51c-4.45.08-8.91,0-13.48,0v-3.88H88.6c.93,0,1.86,0,2.79,0,2.61-.21,3.12-.88,3-4.2-3.68,0-7.21,0-10.73,0a21.68,21.68,0,0,1-4.77-.46c-4.14-1-6.16-2.66-5.84-7.1.24-3.42.05-6.88.05-10.47h5.69c0,3.66,0,7.26,0,10.86,0,2.94.63,3.64,3.48,3.68,4,0,7.91,0,12.16,0V162.18h5.83v6.47C100.26,172.7,100.28,176.75,100.26,180.8ZM129.8,176c-1,2.92-3.79,4-6.47,4.16-6.12.29-12.27.09-18.59.09V176.6H110c3.46,0,6.92.06,10.38,0,2-.06,3.89-.41,3.91-3.19,0-3.39-.43-4.15-3.64-4.46-2-.19-4,0-6.06-.13a24.27,24.27,0,0,1-4.75-.57c-4.14-1.06-5.24-2.67-5.18-7.08,0-4,1.45-5.77,5.46-6.71a17.51,17.51,0,0,1,3.76-.38c5.37,0,10.75,0,16.26,0v3.71c-.92,0-1.82.12-2.72.12q-7.08,0-14.17.06c-2,0-2.92.94-2.86,3s-.15,4.06,2.63,4.35c.84.09,1.68.08,2.53.1,2.44.07,4.9,0,7.33.23C129.16,166.14,131.83,170.13,129.8,176Zm25,5.79A5.71,5.71,0,0,0,151,180.4c-3.19-.18-6.4.1-9.6,0-5.47-.24-7.74-2.69-7.76-8.08,0-3.7,0-7.41,0-11.11s1.61-6.23,5.32-6.51a116.6,116.6,0,0,1,17.83,0c3.68.28,5.24,2.77,5.29,6.54s0,7.41,0,11.12c0,2.76-.11,5.44-3.32,6.93l5.22,4.85C160.32,184.62,157.28,184.73,154.78,181.78ZM191,180.63c-6.79-.31-13.5-.33-20.15-1-3.68-.39-5.08-2.71-5.11-6.41,0-6.3,0-12.6,0-19h5.68c0,6,0,11.85,0,17.72,0,4,.66,4.68,4.7,4.72,4.87.05,9.75,0,14.88,0Zm-37.15-22.57c-3.7-.14-7.42-.13-11.12,0a2.81,2.81,0,0,0-2.85,3.19c0,4,0,7.93,0,11.9a3.08,3.08,0,0,0,3,3.39c1.86.19,3.75,0,6.37,0l-4.4-3.82c4.56-1.48,7.75.2,10.81,3.93a17.86,17.86,0,0,0,1-3.61c.09-3.88,0-7.76.06-11.64C156.82,159.38,155.85,158.13,153.88,158.06Z"/></g></g></svg>