<svg xmlns="http://www.w3.org/2000/svg" viewBox="0 0 206 205"><defs><style>.cls-1{fill:#e57911;}.cls-2{fill:#144e61;}.cls-3{fill:#fff;}</style></defs><title>mysql-color</title><g id="Layer_2" data-name="Layer 2"><g id="Layer_1-2" data-name="Layer 1"><path class="cls-1" d="M103,0h93a10,10,0,0,1,10,10V195a10,10,0,0,1-10,10H103a0,0,0,0,1,0,0V0A0,0,0,0,1,103,0Z"/><path class="cls-2" d="M10,0h93a0,0,0,0,1,0,0V205a0,0,0,0,1,0,0H10A10,10,0,0,1,0,195V10A10,10,0,0,1,10,0Z"/><path class="cls-3" d="M46.88,174.59l4.59-10.21c1.35-3,2.63-6,4.06-9a6.68,6.68,0,0,1,9.95-2.13,3.24,3.24,0,0,1,1.15,2.12c.08,7.73.05,15.46.05,23.32H61.17v-21l-.42-.16a15.88,15.88,0,0,0-.86,1.48c-2.5,5.52-5,11-7.46,16.58A5.44,5.44,0,0,1,47,179.27a5.48,5.48,0,0,1-5.44-3.69c-2.36-5.4-4.83-10.74-7.27-16.11a4.16,4.16,0,0,0-1.39-1.79v21H27.17c0-2.8,0-5.63,0-8.47q0-6.2,0-12.39c0-4,.54-4.75,3.72-5.5,3.74-.88,6.17.06,7.58,3.19,2.41,5.37,4.7,10.8,7,16.2C45.88,172.52,46.28,173.32,46.88,174.59Z"/><path class="cls-3" d="M157.35,177.76l5.22,4.85c-3.74.51-6.79.61-9.29-2.34a5.68,5.68,0,0,0-3.73-1.38c-3.19-.18-6.4.11-9.59,0-5.47-.25-7.75-2.7-7.77-8.08,0-3.71,0-7.41,0-11.12s1.61-6.23,5.32-6.51a117.37,117.37,0,0,1,17.83,0c3.68.28,5.24,2.77,5.29,6.54s0,7.41,0,11.12C160.69,173.59,160.56,176.27,157.35,177.76Zm-13.94-6.48c4.55-1.48,7.74.2,10.81,3.93a18,18,0,0,0,1-3.62c.09-3.88,0-7.76.06-11.64,0-2.07-.94-3.32-2.9-3.4-3.7-.14-7.42-.13-11.12,0-1.81.08-2.87,1.21-2.85,3.19,0,4,0,7.93,0,11.9a3.08,3.08,0,0,0,3,3.39c1.86.19,3.75,0,6.36,0Z"/><path class="cls-3" d="M92.89,178.75c-3.68,0-7.2,0-10.73,0a22,22,0,0,1-4.77-.46c-4.15-1-6.16-2.67-5.84-7.1.25-3.42,0-6.88,0-10.47h5.69c0,3.65,0,7.25,0,10.86,0,2.94.63,3.64,3.48,3.68,4,.05,7.91,0,12.16,0V160.68h5.84q0,3.24,0,6.47c0,4,0,8.1,0,12.15,0,4.29-1.42,6.23-5.65,7a45.93,45.93,0,0,1-7.79.51c-4.45.08-8.9,0-13.48,0V183H87.1c.93,0,1.86,0,2.78,0C92.5,182.74,93,182.07,92.89,178.75Z"/><path class="cls-3" d="M103.24,178.74V175.1h5.31c3.46,0,6.92.06,10.38,0,2-.06,3.89-.41,3.91-3.19,0-3.39-.43-4.16-3.64-4.46-2-.19-4,0-6.07-.14a24.32,24.32,0,0,1-4.74-.56c-4.14-1.07-5.24-2.68-5.19-7.09.05-4,1.45-5.77,5.46-6.71a17.19,17.19,0,0,1,3.76-.38c5.38,0,10.75,0,16.26,0v3.72c-.93,0-1.82.12-2.72.12q-7.09,0-14.17.06c-2,0-2.92.94-2.86,3s-.15,4.06,2.63,4.35c.84.09,1.68.08,2.53.11,2.44.07,4.9,0,7.33.22,6.23.57,8.9,4.56,6.87,10.43-1,2.91-3.79,4-6.46,4.16C115.71,178.94,109.56,178.74,103.24,178.74Z"/><path class="cls-3" d="M189.53,175.1v4c-6.79-.31-13.5-.32-20.14-1-3.68-.39-5.09-2.71-5.11-6.41,0-6.3,0-12.61,0-19h5.68c0,6,0,11.85,0,17.73,0,4,.67,4.67,4.7,4.71C179.52,175.14,184.4,175.1,189.53,175.1Z"/><path class="cls-3" d="M88.57,116c1.16-6.26.88-13.09,6.34-17.56l15.37,27.91-.77.71L95.14,109.72c-.33,1.87-.67,4.32-1.2,6.73-1.13,5.09-6.12,6.94-9.14,2.79s-6-9.56-6.47-14.64c-.63-7.11,1.14-14.43,1.79-21.67.14-1.5.33-3.23-.25-4.52-2.51-5.58-5.21-11.07-8-16.51-2.48-4.83-5.12-9.58-7.77-14.32-1-1.73-2.84-3.24-3.12-5-.44-2.9-.91-6.66.53-8.73,1.27-1.82,5.15-2.47,7.87-2.46a13.87,13.87,0,0,1,7.44,2.58c5.71,4,12.2,5.25,18.78,7,14.59,3.85,25.81,13.51,34.14,25.5,7,10,12,21.41,17.2,32.5,2.71,5.76,6.2,9.55,12.19,12.07,9.1,3.83,16.83,9.89,23.86,18.6l-19.24,4.22,22.83,19.41-1.27,1.51c-8.65-8.69-23.52-9.47-29.23-24l19.64-4,.73-1.18C169.1,121.61,162,117.1,154.3,114c-5-2-8.51-4.68-10.63-9.57-3.1-7.17-6.37-14.28-9.67-21.37A73.49,73.49,0,0,0,97,46.13a6.09,6.09,0,0,0-2.33-.85c-9,.09-16.27-4.73-24-8.39-1.8-.85-4.31-.2-6.49-.24.52,2.15.4,4.85,1.68,6.35,5.88,6.89,9.26,14.89,11.94,23.38.93,3,2.29,6.14,4.4,8.28,3.31,3.37,3.09,6.58,1.58,10.44a34.5,34.5,0,0,0,.16,26.29,33.5,33.5,0,0,0,3.24,5.15Z"/><path class="cls-3" d="M86.53,52.09c1.47.86,3.48,1.38,4.27,2.66s.39,3.3.51,5L90,60l-4.26-6.4Z"/></g></g></svg>