<svg xmlns="http://www.w3.org/2000/svg" viewBox="0 0 586.42 790.52"><defs><style>.cls-1{fill:#f90;}</style></defs><title>nd3-tech-logo-orange</title><g id="Layer_2" data-name="Layer 2"><g id="Layer_1-2" data-name="Layer 1"><path class="cls-1" d="M538.62,631.51H254.93c-36.34,0-59.39-38.94-41.9-70.79l1.08-2a47.8,47.8,0,0,1,41.9-24.8H438.62a47.8,47.8,0,0,0,47.8-47.8V238a47.8,47.8,0,0,0-32.6-45.32L156.91,93.15a47.8,47.8,0,0,1-32.58-47h0A47.8,47.8,0,0,1,187,2.4L553.49,122.34a47.8,47.8,0,0,1,32.93,45.43V583.71A47.8,47.8,0,0,1,538.62,631.51Z"/><path class="cls-1" d="M536.38,790.52H47.87c-37.32,0-60.24-40.85-40.8-72.7l2.69-4.4a47.8,47.8,0,0,1,40.8-22.9H536.38a47.8,47.8,0,0,1,47.8,47.8v4.4A47.8,47.8,0,0,1,536.38,790.52Z"/><path class="cls-1" d="M75.94,631.34h-4.4a47.8,47.8,0,0,1-47.8-47.8V186.69a47.8,47.8,0,0,1,61-45.95l312.36,89.58a47.8,47.8,0,0,1,34.62,45.95V456.21A47.8,47.8,0,0,1,383.9,504h-4.4a47.8,47.8,0,0,1-47.8-47.8V346.06a47.8,47.8,0,0,0-34.55-45.93L184.78,267.72a47.8,47.8,0,0,0-61,45.93V583.54A47.8,47.8,0,0,1,75.94,631.34Z"/></g></g></svg>