<svg xmlns="http://www.w3.org/2000/svg" viewBox="0 0 762 990"><defs><style>.cls-1{fill:#333;}.cls-2{fill:#f16529;}</style></defs><title>nd3-tech-logo-box</title><g id="Layer_2" data-name="Layer 2"><g id="Layer_1-2" data-name="Layer 1"><rect class="cls-1" x="-114" y="114" width="990" height="762" transform="translate(876 114) rotate(90)"/><path class="cls-2" d="M614.41,731.25H330.72c-36.34,0-59.39-38.94-41.9-70.79l1.08-2a47.8,47.8,0,0,1,41.9-24.8H514.41a47.8,47.8,0,0,0,47.8-47.8V337.76a47.8,47.8,0,0,0-32.6-45.32L232.7,192.89a47.8,47.8,0,0,1-32.58-47h0a47.8,47.8,0,0,1,62.64-43.77L629.28,222.08a47.8,47.8,0,0,1,32.93,45.43V683.45A47.8,47.8,0,0,1,614.41,731.25Z"/><path class="cls-2" d="M612.17,890.26H123.66c-37.32,0-60.24-40.85-40.8-72.7l2.69-4.4a47.8,47.8,0,0,1,40.8-22.9H612.17a47.8,47.8,0,0,1,47.8,47.8v4.4A47.8,47.8,0,0,1,612.17,890.26Z"/><path class="cls-2" d="M151.73,731.07h-4.4a47.8,47.8,0,0,1-47.8-47.8V286.43a47.8,47.8,0,0,1,61-45.95l312.36,89.58A47.8,47.8,0,0,1,507.49,376V555.94a47.8,47.8,0,0,1-47.8,47.8h-4.4a47.8,47.8,0,0,1-47.8-47.8V445.8a47.8,47.8,0,0,0-34.55-45.93L260.57,367.46a47.8,47.8,0,0,0-61,45.93V683.27A47.8,47.8,0,0,1,151.73,731.07Z"/></g></g></svg>