<svg xmlns="http://www.w3.org/2000/svg" viewBox="0 0 576 368"><defs><style>.cls-1{fill:gray;}</style></defs><title>other-skills-icon-gray</title><g id="Layer_2" data-name="Layer 2"><g id="Layer_1-2" data-name="Layer 1"><path class="cls-1" d="M569.35,159.63C513,63.95,407.81,0,288,0S63,64,6.65,159.63a48,48,0,0,0,0,48.74C63,304.05,168.19,368,288,368s225-64,281.35-159.63a48,48,0,0,0,0-48.74ZM288,320C185.44,320,95.91,265.3,48,184,92.16,109.07,171.68,56.73,264.16,49A56,56,0,1,1,168,88v0a136,136,0,1,0,228.1-18.47A276.57,276.57,0,0,1,528,184C480.09,265.3,390.56,320,288,320Z"/></g></g></svg>