<svg xmlns="http://www.w3.org/2000/svg" viewBox="0 0 208 208"><defs><style>.cls-1{fill:none;stroke:#999;stroke-miterlimit:10;stroke-width:3px;}</style></defs><title>php-outline-gray</title><g id="Layer_2" data-name="Layer 2"><g id="Layer_1-2" data-name="Layer 1"><path class="cls-1" d="M63.57,98.79c-.82,14-7.43,16.52-14.87,17.35H38.78l4.13-24.79H53.66C59.44,91.35,63.57,93.83,63.57,98.79Z"/><path class="cls-1" d="M196.5,1.5H11.5a10,10,0,0,0-10,10v185a10,10,0,0,0,10,10h185a10,10,0,0,0,10-10V11.5A10,10,0,0,0,196.5,1.5ZM50.29,128.79H35.4L32,146.5H16.2L29.59,78.7H60.31c13.35.84,20,7.52,20,19.2C80.34,117.94,64.48,129.62,50.29,128.79Zm59.94,0L116.06,98c.83-4.15.83-6.65-5-6.65H98.58L91.1,128.79H75.3L88.6,61.5h15.78l-3.27,17.2H116c13.35.84,18.36,7.52,16.69,15.87l-5.84,34.22Zm51.51,0H146.85l-3.38,17.71H127.65L141,78.7h30.72c13.35.84,20,7.52,20,19.2C191.79,117.94,175.93,129.62,161.74,128.79Zm3.36-37.44H154.36l-4.13,24.79h9.92c7.43-.83,14-3.31,14.87-17.35C175,93.83,170.89,91.35,165.1,91.35Z"/><path class="cls-1" d="M165.1,91.35H154.36l-4.13,24.79h9.92c7.43-.83,14-3.31,14.87-17.35C175,93.83,170.89,91.35,165.1,91.35Zm-111.44,0H42.91l-4.13,24.79H48.7c7.44-.83,14.05-3.31,14.87-17.35C63.57,93.83,59.44,91.35,53.66,91.35Z"/><path class="cls-1" d="M175,98.79c-.82,14-7.44,16.52-14.87,17.35h-9.92l4.13-24.79H165.1C170.89,91.35,175,93.83,175,98.79Z"/><path class="cls-1" d="M63.57,98.79c-.82,14-7.43,16.52-14.87,17.35H38.78l4.13-24.79H53.66C59.44,91.35,63.57,93.83,63.57,98.79Z"/></g></g></svg>