<svg xmlns="http://www.w3.org/2000/svg" viewBox="0 0 205 205"><defs><style>.cls-1{fill:#999;}</style></defs><title>php-gray</title><g id="Layer_2" data-name="Layer 2"><g id="Layer_1-2" data-name="Layer 1"><path class="cls-1" d="M62.07,97.29c-.82,14-7.43,16.52-14.87,17.35H37.28l4.13-24.79H52.16C57.94,89.85,62.07,92.33,62.07,97.29Z"/><path class="cls-1" d="M195,0H10A10,10,0,0,0,0,10V195a10,10,0,0,0,10,10H195a10,10,0,0,0,10-10V10A10,10,0,0,0,195,0ZM48.79,127.29H33.9L30.52,145H14.7L28.09,77.2H58.81c13.35.84,20,7.52,20,19.2C78.84,116.44,63,128.12,48.79,127.29Zm59.94,0,5.83-30.79c.83-4.15.83-6.65-5-6.65H97.08L89.6,127.29H73.8L87.1,60h15.78L99.61,77.2h14.91c13.35.84,18.36,7.52,16.69,15.87l-5.84,34.22Zm51.51,0H145.35L142,145H126.15l13.39-67.8h30.72c13.35.84,20,7.52,20,19.2C190.29,116.44,174.43,128.12,160.24,127.29Zm3.36-37.44H152.86l-4.13,24.79h9.92c7.43-.83,14-3.31,14.87-17.35C173.52,92.33,169.39,89.85,163.6,89.85Z"/><path class="cls-1" d="M163.6,89.85H152.86l-4.13,24.79h9.92c7.43-.83,14-3.31,14.87-17.35C173.52,92.33,169.39,89.85,163.6,89.85Zm-111.44,0H41.41l-4.13,24.79H47.2c7.44-.83,14.05-3.31,14.87-17.35C62.07,92.33,57.94,89.85,52.16,89.85Z"/><path class="cls-1" d="M173.52,97.29c-.82,14-7.44,16.52-14.87,17.35h-9.92l4.13-24.79H163.6C169.39,89.85,173.52,92.33,173.52,97.29Z"/><path class="cls-1" d="M62.07,97.29c-.82,14-7.43,16.52-14.87,17.35H37.28l4.13-24.79H52.16C57.94,89.85,62.07,92.33,62.07,97.29Z"/></g></g></svg>