<svg xmlns="http://www.w3.org/2000/svg" viewBox="0 0 205 205"><defs><style>.cls-1{fill:#008cdb;}.cls-2{fill:#fff;}</style></defs><title>php-color</title><g id="Layer_2" data-name="Layer 2"><g id="Layer_1-2" data-name="Layer 1"><rect class="cls-1" width="205" height="205" rx="10" ry="10"/><path class="cls-2" d="M48.79,127.29H33.9L30.53,145H14.71L28.1,77.2H58.81c13.35.84,20,7.52,20,19.2C78.84,116.44,63,128.13,48.79,127.29Zm59.94,0,5.82-30.79c.83-4.16.83-6.65-5-6.65H97.09L89.6,127.29H73.81L87.1,60h15.78L99.61,77.2h14.91c13.35.84,18.36,7.52,16.7,15.86l-5.85,34.23H108.74Zm51.51,0H145.35L142,145H126.16l13.39-67.8h30.71c13.35.84,20,7.52,20,19.2C190.29,116.44,174.43,128.13,160.24,127.29Z"/><path class="cls-1" d="M163.61,89.85H152.87l-4.13,24.79h9.92c7.44-.83,14.05-3.31,14.88-17.35,0-5-4.13-7.44-9.92-7.44Z"/><path class="cls-1" d="M52.16,89.85H41.42l-4.13,24.79H47.2c7.44-.83,14.05-3.31,14.88-17.35,0-5-4.13-7.44-9.92-7.44Z"/></g></g></svg>