<svg xmlns="http://www.w3.org/2000/svg" viewBox="0 0 168.27 135"><defs><style>.cls-1{fill:none;stroke:#999;stroke-miterlimit:10;stroke-width:5px;}</style></defs><title>tw-outline-gray</title><g id="Layer_2" data-name="Layer 2"><g id="Layer_1-2" data-name="Layer 1"><path class="cls-1" d="M161.19,7,160,6.23,145.44,12c-2.65,1-4.67.6-7-1.39C126.66.66,110.52-.21,98.23,8.46c-11.7,8.26-16,19.85-14.09,34.64C57,41.3,35.36,29.25,17.88,9c-8.75,13.12-6.7,24.66,7.77,43.59L12.58,49.13C13.49,65,21.65,75.21,35.7,81.74H24.25c2.13,7,5.54,12.47,11.11,15.86,5.3,3.23,11.32,5.28,17.18,7.92C40,114.7,25.18,118.29,8,118.24c2.06,1.44,2.78,2.05,3.59,2.49,18.5,10,38.22,13.92,59,10.61,46.51-7.42,79.2-45.67,80-92.85,0-2.09,1.39-4.47,2.81-6.15,3.58-4.24,7.54-8.15,11.34-12.2l-.82-.76-12.8,3Z"/></g></g></svg>