<svg xmlns="http://www.w3.org/2000/svg" viewBox="0 0 156.75 130"><defs><style>.cls-1{fill:#999;}</style></defs><title>tw-solid-gray</title><g id="Layer_2" data-name="Layer 2"><g id="Layer_1-2" data-name="Layer 1"><path class="cls-1" d="M153.21,4.52l-1.15-.79-14.6,5.73c-2.65,1-4.67.6-7-1.39C118.68-1.84,102.55-2.71,90.26,6c-11.7,8.26-16,19.85-14.09,34.64C49,38.8,27.38,26.75,9.9,6.52,1.15,19.64,3.2,31.17,17.67,50.1L4.6,46.63c.91,15.86,9.07,26.08,23.12,32.61H16.27c2.13,7,5.54,12.47,11.11,15.86,5.3,3.23,11.32,5.28,17.18,7.92C32,112.2,17.21,115.79,0,115.74c2.06,1.44,2.78,2.05,3.59,2.49,18.5,10,38.22,13.92,59,10.61,46.51-7.42,79.2-45.67,80-92.85,0-2.09,1.39-4.47,2.81-6.15,3.58-4.24,7.54-8.15,11.34-12.2l-.82-.76-12.8,3Z"/></g></g></svg>