<svg xmlns="http://www.w3.org/2000/svg" viewBox="0 0 163.73 115"><defs><style>.cls-1{fill:none;stroke:#f16529;stroke-miterlimit:10;stroke-width:5px;}</style></defs><title>yt-outline-orange</title><g id="Layer_2" data-name="Layer 2"><g id="Layer_1-2" data-name="Layer 1"><path class="cls-1" d="M159.14,25C157.43,12.35,151,6.66,137.81,4.58A152.47,152.47,0,0,0,113.73,2.5c-27,0-54,0-81,1.08-20.6.8-28.2,7.84-29.55,28.13C2,49.4,2.57,67.27,3.39,85c.7,15,7.58,22.68,22.38,24.26,16.24,1.73,32.62,2.25,49,3.08,3.58.18,7.17.21,10.75,0,7.46-.37,23.42-.8,32.56-1a149.53,149.53,0,0,0,20.13-2c11.53-1.88,19.55-8.07,21-20.26A250.57,250.57,0,0,0,159.14,25ZM62.64,81.56V33.44l38.45,24Z"/></g></g></svg>