<svg xmlns="http://www.w3.org/2000/svg" viewBox="0 0 158.73 110"><defs><style>.cls-1{fill:#f16529;}</style></defs><title>yt-solid-orange</title><g id="Layer_2" data-name="Layer 2"><g id="Layer_1-2" data-name="Layer 1"><path class="cls-1" d="M156.64,22.49c-1.71-12.64-8.19-18.33-21.34-20.42A152.47,152.47,0,0,0,111.23,0c-27,0-54,0-81,1.08C9.61,1.88,2,8.92.67,29.21-.51,46.9.07,64.77.89,82.51c.7,15,7.58,22.68,22.38,24.26,16.24,1.73,32.62,2.25,49,3.08,3.58.18,7.17.21,10.75,0,7.46-.37,23.42-.8,32.56-1a149.53,149.53,0,0,0,20.13-2c11.53-1.88,19.55-8.07,21-20.26A250.57,250.57,0,0,0,156.64,22.49ZM60.14,79.06V30.94L98.59,55Z"/></g></g></svg>